<?xml version="1.0" encoding="iso-8859-1"?>
<!-- Generator: Adobe Illustrator 19.0.0, SVG Export Plug-In . SVG Version: 6.00 Build 0)  -->
<svg version="1.1" id="Layer_1" xmlns="http://www.w3.org/2000/svg" xmlns:xlink="http://www.w3.org/1999/xlink" x="0px" y="0px"
	 viewBox="0 0 512 512" style="enable-background:new 0 0 512 512;" xml:space="preserve">
<g>
	<g>
		<path d="M395.637,0.001c-56.196,0-103.21,40.041-114.021,93.091H23.274c-9.413,0-17.901,5.671-21.502,14.37
			c-3.603,8.698-1.609,18.71,5.05,25.364l179.361,179.254v153.375H116.31c-12.853,0-23.273,10.418-23.273,23.273
			c0,12.851,10.42,23.273,23.273,23.273h93.145H302.6c12.853,0,23.273-10.422,23.273-23.273c0-12.854-10.42-23.273-23.273-23.273
			h-69.872V312.079l98.696-98.639c18.882,12.546,41.027,19.288,64.212,19.288c64.163,0,116.363-52.202,116.363-116.363
			C512,52.201,459.799,0.001,395.637,0.001z M395.637,186.182c-10.603,0-20.843-2.355-30.129-6.803l46.581-46.555
			c6.659-6.654,8.653-16.666,5.052-25.364c-3.603-8.696-12.091-14.369-21.504-14.369h-65.815
			c9.607-27.088,35.475-46.545,65.815-46.545c38.499,0,69.818,31.32,69.818,69.818S434.134,186.182,395.637,186.182z"/>
	</g>
</g>
<g>
</g>
<g>
</g>
<g>
</g>
<g>
</g>
<g>
</g>
<g>
</g>
<g>
</g>
<g>
</g>
<g>
</g>
<g>
</g>
<g>
</g>
<g>
</g>
<g>
</g>
<g>
</g>
<g>
</g>
</svg>
