<?xml version="1.0" encoding="iso-8859-1"?>
<!-- Generator: Adobe Illustrator 19.0.0, SVG Export Plug-In . SVG Version: 6.00 Build 0)  -->
<svg version="1.1" id="Capa_1" xmlns="http://www.w3.org/2000/svg" xmlns:xlink="http://www.w3.org/1999/xlink" x="0px" y="0px"
	 viewBox="0 0 512 512" style="enable-background:new 0 0 512 512;" xml:space="preserve">
<g>
	<g>
		<path d="M177.264,291.051h-58.39c3.265,45.193,21.133,85.253,47.805,113.083l37.937-65.708L177.264,291.051z"/>
	</g>
</g>
<g>
	<g>
		<path d="M166.68,147.968c-26.672,27.83-44.54,67.89-47.805,113.083h58.39l27.352-47.375L166.68,147.968z"/>
	</g>
</g>
<g>
	<g>
		<path d="M334.736,291.051l-27.352,47.375l37.937,65.708c26.672-27.83,44.54-67.89,47.805-113.083H334.736z"/>
	</g>
</g>
<g>
	<g>
		<path d="M280.429,351.738h-48.858l-41.597,72.048c19.603,13.124,42.101,20.591,66.026,20.591s46.423-7.467,66.026-20.591
			L280.429,351.738z"/>
	</g>
</g>
<g>
	<g>
		<path d="M256,107.725c-23.926,0-46.423,7.467-66.026,20.591l41.597,72.048h48.858l41.597-72.048
			C302.423,115.192,279.926,107.725,256,107.725z"/>
	</g>
</g>
<g>
	<g>
		<path d="M345.321,147.968l-37.937,65.708l27.352,47.375h58.39C389.861,215.857,371.993,175.798,345.321,147.968z"/>
	</g>
</g>
<g>
	<g>
		<polygon points="282.378,230.364 229.622,230.364 203.245,276.051 229.622,321.738 282.378,321.738 308.755,276.051 		"/>
	</g>
</g>
<g>
	<g>
		<path d="M452.981,121.555c-30.895-18.931-68.359-21.342-100.777-8.124c8.723,7.219,16.868,15.432,24.368,24.603
			c11.405,13.944,20.885,29.563,28.279,46.378L512,184.495C498.245,155.739,475.855,135.571,452.981,121.555z"/>
	</g>
</g>
<g>
	<g>
		<path d="M381.569,407.675c-1.623,2.166-3.285,4.302-4.996,6.394c-14.055,17.184-30.364,31.017-48.53,41.198l39.503,56.726
			C391.314,470.019,388.674,432.675,381.569,407.675z"/>
	</g>
</g>
<g>
	<g>
		<path d="M135.427,414.069c-1.711-2.092-3.373-4.228-4.997-6.394c-7.104,25-9.745,62.344,14.023,104.318l39.503-56.726
			C165.791,445.086,149.482,431.253,135.427,414.069z"/>
	</g>
</g>
<g>
	<g>
		<path d="M59.018,121.555C36.145,135.571,13.755,155.739,0,184.495l107.148-0.084c7.394-16.815,16.874-32.434,28.279-46.378
			c7.501-9.17,15.645-17.383,24.368-24.602C127.378,100.213,89.913,102.624,59.018,121.555z"/>
	</g>
</g>
<g>
	<g>
		<path d="M256,0.007c-26.762,0-48.456,21.694-48.456,48.456v37.635c15.62-5.553,31.845-8.372,48.456-8.372
			c16.611,0,32.836,2.818,48.456,8.371V48.463C304.456,21.702,282.762,0.007,256,0.007z"/>
	</g>
</g>
<g>
</g>
<g>
</g>
<g>
</g>
<g>
</g>
<g>
</g>
<g>
</g>
<g>
</g>
<g>
</g>
<g>
</g>
<g>
</g>
<g>
</g>
<g>
</g>
<g>
</g>
<g>
</g>
<g>
</g>
</svg>
