<?xml version="1.0" encoding="iso-8859-1"?>
<!-- Generator: Adobe Illustrator 18.1.1, SVG Export Plug-In . SVG Version: 6.00 Build 0)  -->
<svg version="1.1" id="Capa_1" xmlns="http://www.w3.org/2000/svg" xmlns:xlink="http://www.w3.org/1999/xlink" x="0px" y="0px"
	 viewBox="0 0 298.842 298.842" style="enable-background:new 0 0 298.842 298.842;" xml:space="preserve">
<g>
	<g>
		<g>
			<path d="M283.222,152.814c-5.009-6.032-9.741-11.727-12.254-18.014c-2.203-5.51-2.741-11.939-3.263-18.199
				c-0.783-9.372-1.594-19.069-7.865-26.728c-5.58-6.831-18.292-14.457-26.205-17.041c-4.743-1.539-9.665-1.746-13.853-1.746
				c-1.316,0-2.627,0.016-3.971,0.049c-1.284,0.016-2.584,0.038-3.856,0.038c-6.88,0-12.526-0.685-17.726-4.019
				c-3.231-2.061-5.842-4.819-8.61-7.734c-2.545-2.681-5.167-5.461-8.344-7.675c-5.189-3.617-11.313-4.172-17.269-4.71
				c-3.824-0.343-7.435-0.669-10.574-1.789c-0.158-0.06-0.299-0.06-0.299-0.06c-0.223-0.054-0.691-0.065-0.925-0.011l-0.332,0.065
				c-3.155,1.126-6.489,1.452-10.013,1.795c-5.455,0.533-11.085,1.082-16.279,4.71c-3.176,2.214-5.809,4.993-8.349,7.675
				c-2.763,2.915-5.374,5.673-8.605,7.734c-5.205,3.334-10.851,4.019-17.742,4.019c-1.267,0-2.562-0.022-3.873-0.038
				c-1.316-0.033-2.627-0.054-3.96-0.054c-4.183,0-9.094,0.212-13.842,1.751c-7.914,2.578-20.619,10.204-26.205,17.041
				c-6.266,7.658-7.082,17.356-7.865,26.771c-0.522,6.217-1.05,12.646-3.258,18.156c-2.513,6.288-7.245,11.982-12.276,18.041
				C4.535,166.188-6.92,179.987,5.171,201.162c0.604,1.05,2.072,1.441,3.111,0.838c0.87-0.506,17.748,2.306,23.981,2.856
				c0.054,0.087,0.076,0.179,0.136,0.261c0.772,0.925,2.246,1.066,3.198,0.294c15.42-12.853,20.114-36.393,21.419-46.08l0.022-0.049
				c5.385-14.354,19.292-20.554,32.488-24.601c-0.495,2.045,3.796-7.054,3.796-7.054l2.415,10.068
				c0.31,1.278,0.658,3.813,1.017,4.982l0.522,2.165c6.995,21.909,22.273,21.707,44.687,22.817c0.604-0.005,1.49-0.082,2.48-0.892
				c0.903-0.74,1.692-1.855,2.339-3.329l2.377-5.385l2.567,5.298c0.62,1.273,1.343,2.257,2.143,2.915
				c1.071,0.876,2.002,0.919,2.176,0.919c23.899-1.197,39.983-3.938,46.352-29.442l0.555-1.376l2.159-10.051l3.791,8.985
				l0.473-0.103c13.152,4.041,27.021,10.22,32.498,24.585c1.294,9.638,5.978,33.26,21.424,46.14c0.914,0.767,2.42,0.636,3.204-0.299
				c0.163-0.196,0.272-0.424,0.359-0.664c6.57-0.674,22.844-3.465,23.698-2.97c0.343,0.201,0.734,0.299,1.126,0.299
				c0.816,0,1.577-0.435,1.974-1.142C305.767,179.987,294.317,166.188,283.222,152.814z"/>
		</g>
		<g>
			<path d="M156.502,172.601c-1.262,0.12-3.699-0.185-6.075-2.132c-0.359-0.294-0.707-0.615-1.033-0.963
				c-0.468,0.549-0.974,1.039-1.501,1.474c-2.252,1.855-4.525,2.132-5.684,2.132l-0.609-0.027
				c-21.979-1.082-39.852-3.824-48.473-25.585c-1.539,5.08-2.975,10.661-2.235,13.587c1.534,4.58,3.965,7.582,6.543,10.753
				c3.285,4.068,6.995,8.659,8.327,16.649c4.591,15.463-0.457,25.558-4.139,32.934c-4.792,9.578-7.441,14.892,15.746,31.9
				c3.225,0.038,15.975,0.06,28.343,0.076c22.893,0.033,32.139,0.049,36.061,0.305c23.393-15.953,20.396-21.903,15.888-30.894
				l-0.43-0.854c-3.693-7.364-8.741-17.459-4.009-33.532c1.197-7.392,4.89-11.988,8.159-16.034c2.6-3.193,5.042-6.195,6.685-11.134
				c0.696-2.839-1.126-9.312-2.752-14.544C196.719,168.723,178.726,171.502,156.502,172.601z"/>
		</g>
	</g>
</g>
<g>
</g>
<g>
</g>
<g>
</g>
<g>
</g>
<g>
</g>
<g>
</g>
<g>
</g>
<g>
</g>
<g>
</g>
<g>
</g>
<g>
</g>
<g>
</g>
<g>
</g>
<g>
</g>
<g>
</g>
</svg>
