<?xml version="1.0" encoding="iso-8859-1"?>
<!-- Generator: Adobe Illustrator 18.1.1, SVG Export Plug-In . SVG Version: 6.00 Build 0)  -->
<svg version="1.1" id="Capa_1" xmlns="http://www.w3.org/2000/svg" xmlns:xlink="http://www.w3.org/1999/xlink" x="0px" y="0px"
	 viewBox="0 0 446.605 446.605" style="enable-background:new 0 0 446.605 446.605;" xml:space="preserve" fill="#a79f9f">
<g>
	<g>
		<g>
			<circle cx="201.05" cy="114.326" r="4.024"/>
		</g>
		<g>
			<circle cx="204.001" cy="129.283" r="4.024"/>
		</g>
		<g>
			<circle cx="206.952" cy="88.347" r="4.024"/>
		</g>
		<g>
			<circle cx="178.225" cy="114.326" r="4.024"/>
		</g>
		<g>
			<circle cx="223.314" cy="102.32" r="4.024"/>
		</g>
		<g>
			<circle cx="184.135" cy="134.404" r="4.024"/>
		</g>
		<g>
			<circle cx="191.613" cy="102.32" r="4.024"/>
		</g>
		<g>
			<circle cx="255.788" cy="102.32" r="4.024"/>
		</g>
		<g>
			<circle cx="255.788" cy="117.277" r="4.024"/>
		</g>
		<g>
			<circle cx="270.631" cy="114.326" r="4.024"/>
		</g>
		<g>
			<circle cx="255.788" cy="138.338" r="4.016"/>
		</g>
		<g>
			<circle cx="234.117" cy="88.347" r="4.024"/>
		</g>
		<g>
			<circle cx="241.409" cy="126.332" r="4.024"/>
		</g>
		<g>
			<circle cx="241.409" cy="105.271" r="4.024"/>
		</g>
		<g>
			<path d="M423.261,227.598c-7.486-9.015-14.558-17.525-18.314-26.922
				c-3.292-8.234-4.097-17.842-4.877-27.198c-1.171-14.006-2.382-28.499-11.754-39.944c-8.34-10.21-27.336-21.606-39.163-25.467
				c-7.088-2.3-14.444-2.609-20.703-2.609c-1.967,0-3.926,0.024-5.934,0.073c-1.918,0.024-3.861,0.057-5.763,0.057
				c-9.616,0-17.59-1.032-24.938-5.235c-11.413-7.356-28.336-23.443-28.539-23.63l-1.105-0.748
				c-13.071-6.007-36.197-7.421-36.831-7.446c-14.989-2.113-40.212,8.291-41.285,8.73l-1.423,0.984
				c-12.307,13.298-25.028,20.622-30.425,23.378c-6.649,3.064-13.843,3.959-22.354,3.959c-1.894,0-3.829-0.033-5.788-0.057
				c-1.967-0.049-3.926-0.081-5.918-0.081c-6.251,0-13.591,0.317-20.687,2.617c-11.827,3.853-30.815,15.249-39.163,25.467
				c-9.364,11.445-10.583,25.938-11.754,40.009c-0.78,9.291-1.569,18.899-4.869,27.133c-3.755,9.397-10.827,17.907-18.346,26.962
				c-16.55,19.948-33.669,40.57-15.599,72.214c0.902,1.569,3.097,2.154,4.65,1.252c1.301-0.756,26.524,3.447,35.839,4.267
				c0.081,0.13,0.114,0.268,0.203,0.39c1.154,1.382,3.357,1.593,4.78,0.439c23.045-19.208,30.059-54.388,32.01-68.865l0.033-0.073
				c8.047-21.451,28.832-30.718,48.552-36.766c-0.471,1.943,1.951-2.845,3.78-6.592c-1.553,15.981-2.601,42.724-1.764,46.048
				c2.292,6.844,5.926,11.331,9.779,16.07c4.91,6.08,10.453,12.941,12.445,24.882c6.861,23.11-0.683,38.196-6.186,49.219
				c-7.161,14.314-11.12,22.256,23.532,47.674c4.82,0.057,23.874,0.089,42.358,0.114c34.213,0.049,48.032,0.073,53.892,0.455
				c34.961-23.841,30.482-32.734,23.744-46.17l-0.642-1.276c-5.519-11.006-13.063-26.093-5.991-50.113
				c1.788-11.047,7.308-17.915,12.193-23.963c3.885-4.771,7.535-9.258,9.99-16.639c0.683-2.788-0.252-27.093-1.666-45.723
				l2.934,6.958l0.707-0.154c19.655,6.04,40.383,15.274,48.568,36.741c1.935,14.404,8.933,49.706,32.018,68.955
				c1.366,1.146,3.617,0.951,4.788-0.447c0.244-0.293,0.406-0.634,0.536-0.992c9.819-1.008,34.14-5.178,35.416-4.438
				c0.512,0.301,1.097,0.447,1.683,0.447c1.219,0,2.357-0.65,2.951-1.707C456.954,268.208,439.843,247.586,423.261,227.598z
				 M286.23,120.528c-2.504,12.973-5.34,27.67-16.249,34.376c-2.284,1.382-4.991,2.089-8.015,2.089
				c-11.242,0-25.069-9.413-35.172-16.29c-1.699-1.162-3.195-2.178-4.495-3.008c-0.057,0.008-0.114,0.008-0.171,0.008
				c-1.292,0.837-2.788,1.845-4.487,2.999c-10.096,6.877-23.922,16.29-35.164,16.29c-3.016,0-5.706-0.699-7.99-2.073
				c-10.933-6.722-13.77-21.427-16.282-34.392c-0.837-4.341-1.683-8.145-2.666-11.469c5.706-2.853,19.118-10.445,32.433-24.621
				c7.348-2.967,25.946-9.356,36.538-7.82c0.219,0.016,21.833,1.341,33.652,6.487c3.178,2.991,19.549,18.216,30.921,25.085
				C287.961,111.847,287.075,116.212,286.23,120.528z"/>
		</g>
	</g>
</g>
<g>
</g>
<g>
</g>
<g>
</g>
<g>
</g>
<g>
</g>
<g>
</g>
<g>
</g>
<g>
</g>
<g>
</g>
<g>
</g>
<g>
</g>
<g>
</g>
<g>
</g>
<g>
</g>
<g>
</g>
</svg>
