<?xml version="1.0" encoding="iso-8859-1"?>
<!-- Generator: Adobe Illustrator 16.0.0, SVG Export Plug-In . SVG Version: 6.00 Build 0)  -->
<!DOCTYPE svg PUBLIC "-//W3C//DTD SVG 1.1//EN" "http://www.w3.org/Graphics/SVG/1.1/DTD/svg11.dtd">
<svg version="1.1" id="Capa_1" xmlns="http://www.w3.org/2000/svg" xmlns:xlink="http://www.w3.org/1999/xlink" x="0px" y="0px"
	 width="792px" height="792px" viewBox="0 0 792 792" style="enable-background:new 0 0 792 792;" xml:space="preserve" fill="#a79f9f">
<g>
	<g>
		<path d="M626.364,18.943H343.282c-5.229,0-9.472-4.243-9.472-9.471c0-5.229,4.243-9.472,9.472-9.472h283.12
			c5.229,0,9.471,4.243,9.471,9.472C635.872,14.7,631.591,18.943,626.364,18.943z"/>
		<path d="M626.78,43.379H342.903c-5.229,0-9.472-4.243-9.472-9.471s4.243-9.471,9.472-9.471H626.78
			c5.229,0,9.471,4.243,9.471,9.471S632.009,43.379,626.78,43.379z"/>
		<path d="M265.995,123.848c-5.228,0-9.471-4.243-9.471-9.471c0-5.229,4.205-9.472,9.471-9.472l361.504-0.189l0,0
			c5.229,0,9.473,4.243,9.473,9.472c0,5.228-4.205,9.471-9.473,9.471L265.995,123.848L265.995,123.848z"/>
		<path d="M627.046,148.095H265.995c-5.228,0-9.471-4.243-9.471-9.472c0-5.228,4.243-9.471,9.471-9.471h361.051
			c5.229,0,9.471,4.243,9.471,9.471C636.517,143.852,632.274,148.095,627.046,148.095z"/>
		<path d="M628.183,230.951H213.902c-5.228,0-9.471-4.243-9.471-9.472c0-5.228,4.243-9.471,9.471-9.471H628.22
			c5.229,0,9.471,4.243,9.471,9.471C637.69,226.708,633.409,230.951,628.183,230.951z"/>
		<path d="M628.183,255.387H213.902c-5.228,0-9.471-4.243-9.471-9.471c0-5.229,4.243-9.472,9.471-9.472H628.22
			c5.229,0,9.471,4.243,9.471,9.472C637.69,251.144,633.409,255.387,628.183,255.387z"/>
		<path d="M626.667,336.993L626.667,336.993l-463.721-0.644c-5.266,0-9.472-4.243-9.472-9.472c0-5.228,4.244-9.471,9.472-9.471l0,0
			l463.721,0.644c5.266,0,9.471,4.243,9.471,9.471C636.138,332.75,631.896,336.993,626.667,336.993z"/>
		<path d="M626.667,361.429H162.908c-5.228,0-9.471-4.243-9.471-9.471c0-5.229,4.243-9.472,9.471-9.472h463.759
			c5.229,0,9.471,4.243,9.471,9.472C636.138,357.186,631.896,361.429,626.667,361.429z"/>
		<path d="M627.575,468.077H190.261c-5.228,0-9.471-4.243-9.471-9.471c0-5.229,4.243-9.472,9.471-9.472h437.314
			c5.229,0,9.473,4.243,9.473,9.472C637.048,463.834,632.767,468.077,627.575,468.077z"/>
		<path d="M627.575,443.642H190.261c-5.228,0-9.471-4.243-9.471-9.472s4.243-9.472,9.471-9.472h437.314
			c5.229,0,9.473,4.243,9.473,9.472S632.767,443.642,627.575,443.642z"/>
		<path d="M629.091,551.615H215.569c-5.228,0-9.471-4.243-9.471-9.472c0-5.228,4.243-9.471,9.471-9.471h413.522
			c5.229,0,9.473,4.243,9.473,9.471C638.563,547.372,634.282,551.615,629.091,551.615z"/>
		<path d="M215.114,577.529c-5.228,0-9.434-4.205-9.471-9.434c-0.038-5.229,4.205-9.472,9.434-9.51l413.977-1.477h0.037
			c5.229,0,9.434,4.205,9.473,9.433c0.037,5.229-4.207,9.472-9.434,9.51L215.114,577.529L215.114,577.529z"/>
		<path d="M626.325,683.382H273.269c-5.229,0-9.472-4.243-9.472-9.472s4.243-9.471,9.472-9.471h353.056
			c5.229,0,9.471,4.242,9.471,9.471S631.554,683.382,626.325,683.382z"/>
		<path d="M273.08,659.324c-5.229,0-9.472-4.243-9.472-9.472c0-5.228,4.206-9.471,9.472-9.471l352.716-0.379l0,0
			c5.227,0,9.471,4.243,9.471,9.471c0,5.229-4.205,9.472-9.471,9.472L273.08,659.324L273.08,659.324z"/>
		<path d="M627.804,767.563H374.461c-5.228,0-9.471-4.243-9.471-9.471c0-5.229,4.243-9.472,9.471-9.472h253.342
			c5.227,0,9.471,4.243,9.471,9.472C637.274,763.32,632.993,767.563,627.804,767.563z"/>
		<path d="M627.462,792H374.386c-5.228,0-9.471-4.243-9.471-9.472c0-5.228,4.243-9.471,9.471-9.471h253.076
			c5.229,0,9.471,4.243,9.471,9.471C636.933,787.757,632.651,792,627.462,792z"/>
	</g>
</g>
<g>
</g>
<g>
</g>
<g>
</g>
<g>
</g>
<g>
</g>
<g>
</g>
<g>
</g>
<g>
</g>
<g>
</g>
<g>
</g>
<g>
</g>
<g>
</g>
<g>
</g>
<g>
</g>
<g>
</g>
</svg>
