<?xml version="1.0" encoding="iso-8859-1"?>
<!-- Generator: Adobe Illustrator 16.0.0, SVG Export Plug-In . SVG Version: 6.00 Build 0)  -->
<!DOCTYPE svg PUBLIC "-//W3C//DTD SVG 1.1//EN" "http://www.w3.org/Graphics/SVG/1.1/DTD/svg11.dtd">
<svg version="1.1" id="Capa_1" xmlns="http://www.w3.org/2000/svg" xmlns:xlink="http://www.w3.org/1999/xlink" x="0px" y="0px"
	 width="141.239px" height="141.238px" viewBox="0 0 141.239 141.238" style="enable-background:new 0 0 141.239 141.238;"
	 xml:space="preserve" fill="#a79f9f">
<g>
	<path d="M6.616,106.26c0,0,12.69,1.544,16.944,1.539c3.915,0,9.738,0.164,18.714-6.567c0,0,1.317,7.558,8.887,12.871
		c0,0,2.484,4.787,5.323,9.783h49.406c0.047-3.901-0.183-7.956-0.84-12.085c0,0,10.726-20.381,4.533-33.557
		c0,0,18.494-5.034,26.474-24.591c0,0,8.414-7.349,3.796-11.979c0,0-5.038-9.035-19.339-15.13c0,0-9.455-5.456-10.922-7.349
		c0,0-3.992-6.304-18.495,4.405c0,0-2.517,8.204,2.309,11.776c0,0,7.357,1.265,10.715-5.258c0,0,0.626-0.826-0.616-1.253
		c0,0,2.718,0.208,4.197-2.523c0,0,6.309,2.523,9.236,10.09c2.941,7.573,2.516,8.187,4.201,9.461c0,0-13.022,3.579-15.968,13.445
		c0,0-14.086,2.309-16.395,11.141c0,0-11.135,1.675-8.819-8.832c0,0,1.892-2.309,6.999-2.024c0,0,2.554,0.142,0.7-4.772
		c-0.172-0.459,0.436-1.001,0.771-1.828c0.317-0.755,0.011-0.892-1.391-2.09c-0.459-0.378,0.373-1.237,0.723-2.167
		c0.22-0.559-0.723-2.6-0.723-2.6s2.189-1.713,2.091-2.522c-0.219-1.916-5.318-2.9-6.162-4.619c-0.337-0.684,0.854-2.21,0.7-2.933
		c-0.579-2.741-3.403-8.323-7.185-10.501c-5.182-2.977-19.329-3.924-25.493,8.547c-1.665,3.365-0.332,11.519,1.118,14.994
		c1.357,3.293,7.459,12.164,7.459,12.164c0.287,0.842,2.234,13.182-8.405,16.251c0,0-9.672-0.562-16.676,5.888
		c0,0-11.908-0.985-15.127,6.02c0,0-0.829-12.192,6.875-19.611c0,0,4.476,1.116,6.299,0c0,0,1.401,4.552,4.48,2.801
		c0,0,2.182,0.625,2.528-1.411c0,0,3.214-0.203,2.588-3.36c0,0,1.608-4.476-0.98-5.734c0,0,0.124-3.922-3.374-3.786
		c0,0-6.366,0.471-8.473,0.284c-2.744-0.229-7.575,0.701-10.512,5.893L8.57,78.818c0,0-7.145,9.526-8.124,18.911
		C0.458,97.724-2.489,104.729,6.616,106.26z"/>
</g>
<g>
</g>
<g>
</g>
<g>
</g>
<g>
</g>
<g>
</g>
<g>
</g>
<g>
</g>
<g>
</g>
<g>
</g>
<g>
</g>
<g>
</g>
<g>
</g>
<g>
</g>
<g>
</g>
<g>
</g>
</svg>
