<?xml version="1.0" encoding="iso-8859-1"?>
<!-- Generator: Adobe Illustrator 18.1.1, SVG Export Plug-In . SVG Version: 6.00 Build 0)  -->
<svg version="1.1" id="Capa_1" xmlns="http://www.w3.org/2000/svg" xmlns:xlink="http://www.w3.org/1999/xlink" x="0px" y="0px"
	 viewBox="0 0 39.281 39.281" style="enable-background:new 0 0 39.281 39.281;" xml:space="preserve">
<g>
	<g>
		<path d="M31.118,11.662h-9.826v-0.528c2.301-0.742,3.971-2.873,3.971-5.419c0-3.156-2.56-5.715-5.715-5.715
			c-3.158,0-5.716,2.559-5.716,5.715c0,2.546,1.673,4.676,3.975,5.418v0.529H8.165L3.497,39.281h32.287L31.118,11.662z
			 M16.944,5.715c0-1.436,1.169-2.604,2.604-2.604c1.438,0,2.606,1.169,2.606,2.604c0,1.437-1.169,2.605-2.606,2.605
			C18.113,8.32,16.944,7.151,16.944,5.715z"/>
	</g>
</g>
<g>
</g>
<g>
</g>
<g>
</g>
<g>
</g>
<g>
</g>
<g>
</g>
<g>
</g>
<g>
</g>
<g>
</g>
<g>
</g>
<g>
</g>
<g>
</g>
<g>
</g>
<g>
</g>
<g>
</g>
</svg>
