<?xml version="1.0" encoding="iso-8859-1"?>
<!-- Generator: Adobe Illustrator 19.0.0, SVG Export Plug-In . SVG Version: 6.00 Build 0)  -->
<svg version="1.1" id="Capa_1" xmlns="http://www.w3.org/2000/svg" xmlns:xlink="http://www.w3.org/1999/xlink" x="0px" y="0px"
	 viewBox="0 0 234.082 234.082" style="enable-background:new 0 0 234.082 234.082;" xml:space="preserve">
<path d="M216.541,73h-32v30h7v30h-16v-7h-48v-17h48.753L167.486,0H67.262l-8.808,109h49.087v17h-49v7h-16v-30h7V73h-32v30h6v49h35v6
	h49v19.012l-24.937,8.198c-2.478-1.547-5.311-2.457-8.442-2.457c-8.913,0-16.123,7.252-16.123,16.165s7.273,16.164,16.186,16.164
	c7.126,0,13.021-4.64,15.166-11.053l18.149-5.978v7.191c-3,2.963-5.998,7.539-5.998,12.676c0,8.913,7.334,16.164,16.247,16.164
	s16.04-7.251,16.04-16.164c0-5.137-2.29-9.713-6.29-12.676v-6.708l16.991,5.494c2.145,6.413,8.28,11.053,15.406,11.053
	c8.913,0,16.207-7.251,16.207-16.164s-7.231-16.165-16.144-16.165c-3.131,0-6.203,0.909-8.681,2.457l-23.778-7.714V158h48v-6h35v-49
	h6V73z"/>
<g>
</g>
<g>
</g>
<g>
</g>
<g>
</g>
<g>
</g>
<g>
</g>
<g>
</g>
<g>
</g>
<g>
</g>
<g>
</g>
<g>
</g>
<g>
</g>
<g>
</g>
<g>
</g>
<g>
</g>
</svg>
