<?xml version="1.0" encoding="iso-8859-1"?>
<!-- Generator: Adobe Illustrator 19.0.0, SVG Export Plug-In . SVG Version: 6.00 Build 0)  -->
<svg version="1.1" id="Layer_1" xmlns="http://www.w3.org/2000/svg" xmlns:xlink="http://www.w3.org/1999/xlink" x="0px" y="0px"
	 viewBox="0 0 512 512" style="enable-background:new 0 0 512 512;" xml:space="preserve">
<g>
	<g>
		<path d="M97.585,128.713h55.764V94.869H97.585c-32.325,0-58.701,25.878-59.545,58.003H16.922C7.576,152.872,0,160.448,0,169.794
			V303.28c0,9.345,7.576,16.922,16.922,16.922h76c9.345,0,16.922-7.577,16.922-16.922V169.794c0-9.345-7.577-16.922-16.922-16.922
			H71.897C72.718,139.412,83.922,128.713,97.585,128.713z"/>
	</g>
</g>
<g>
	<g>
		<path d="M416.468,472.688h-91.092v-75.492h59.778c9.345,0,16.922-7.576,16.922-16.922s-7.576-16.922-16.922-16.922h-59.778V21.153
			c0-8.662-7.021-15.683-15.683-15.683H202.307c-8.662,0-15.683,7.021-15.683,15.683v342.198h-59.778
			c-9.345,0-16.922,7.576-16.922,16.922s7.576,16.922,16.922,16.922h59.778v75.492H95.532c-9.345,0-16.922,7.577-16.922,16.922
			s7.577,16.922,16.922,16.922h320.936c9.345,0,16.922-7.576,16.922-16.922S425.813,472.688,416.468,472.688z"/>
	</g>
</g>
<g>
	<g>
		<path d="M495.078,152.872H473.96c-0.844-32.125-27.221-58.003-59.545-58.003h-55.35v33.844h55.35
			c13.663,0,24.867,10.699,25.689,24.159h-21.025c-9.345,0-16.922,7.577-16.922,16.922V303.28c0,9.345,7.576,16.922,16.922,16.922
			h76c9.345,0,16.922-7.577,16.922-16.922V169.794C512,160.448,504.424,152.872,495.078,152.872z"/>
	</g>
</g>
<g>
</g>
<g>
</g>
<g>
</g>
<g>
</g>
<g>
</g>
<g>
</g>
<g>
</g>
<g>
</g>
<g>
</g>
<g>
</g>
<g>
</g>
<g>
</g>
<g>
</g>
<g>
</g>
<g>
</g>
</svg>
