<?xml version="1.0" encoding="iso-8859-1"?>
<!-- Generator: Adobe Illustrator 19.1.0, SVG Export Plug-In . SVG Version: 6.00 Build 0)  -->
<svg version="1.1" id="Capa_1" xmlns="http://www.w3.org/2000/svg" xmlns:xlink="http://www.w3.org/1999/xlink" x="0px" y="0px"
	 viewBox="0 0 482.874 482.874" style="enable-background:new 0 0 482.874 482.874;" xml:space="preserve">
<g>
	<path d="M412.149,70.761c-94.3-94.3-247.1-94.3-341.4,0c-90.8,90.7-94.2,235.8-10.2,330.6l2.5,2c-9.1,19.7-24.8,44-49.7,56.2
		c-8.2,4-6.3,16.3,2.7,17.7c27.2,4.3,66.3-0.5,102.6-28l0.5,0.4c92.5,54.4,213.6,41.9,293-37.5
		C506.449,317.861,506.449,165.061,412.149,70.761z M305.849,329.861c-9.8,11.9-22.5,19.9-37.4,24c-6.5,1.8-9.4,5.2-9.1,11.9
		c0.3,6.6,0,13.2-0.1,19.9c0,5.9-3,9.1-8.8,9.2c-7.1,0.2-14.3,0.2-21.4,0c-6.2-0.1-9.2-3.7-9.3-9.8c-0.1-4.8-0.1-9.7-0.1-14.5
		c-0.1-10.7-0.4-11.1-10.7-12.7c-13.1-2.1-26-5.1-38-10.9c-9.4-4.6-10.4-6.9-7.7-16.8c2-7.4,4-14.7,6.3-22c2.7-8.5,4.9-9.5,12.7-5.5
		c13.3,6.9,27.4,10.8,42.2,12.6c9.5,1.2,18.9,0.2,27.7-3.6c16.5-7.2,19.1-26.3,5.1-37.8c-4.7-3.9-10.1-6.8-15.8-9.3
		c-14.4-6.3-29.5-11.2-43.2-19.4c-22.1-13.3-36.2-31.4-34.5-58.4c1.9-30.5,19.1-49.5,47-59.6c11.5-4.2,11.6-4,11.6-16.1
		c0-4.1-0.1-8.2,0.1-12.2c0.2-9.1,1.8-10.6,10.8-10.9c2.8-0.1,5.6,0,8.4,0c19.3,0,19.3,0,19.3,19.2c0.1,13.6,0,13.7,13.6,15.8
		c10.4,1.6,20.3,4.7,29.9,8.9c5.3,2.3,7.3,6,5.7,11.6c-2.4,8.3-4.7,16.7-7.3,24.9c-2.5,7.8-5,8.9-12.5,5.3
		c-15-7.3-30.8-10.3-47.4-9.4c-4.4,0.2-8.6,0.8-12.6,2.6c-14.4,6.3-16.7,22.1-4.5,31.9c6.2,4.9,13.2,8.5,20.6,11.6
		c12.7,5.3,25.5,10.3,37.6,17C322.549,248.761,332.849,296.961,305.849,329.861z"/>
</g>
<g>
</g>
<g>
</g>
<g>
</g>
<g>
</g>
<g>
</g>
<g>
</g>
<g>
</g>
<g>
</g>
<g>
</g>
<g>
</g>
<g>
</g>
<g>
</g>
<g>
</g>
<g>
</g>
<g>
</g>
</svg>
