<?xml version="1.0" encoding="iso-8859-1"?>
<!-- Generator: Adobe Illustrator 19.0.0, SVG Export Plug-In . SVG Version: 6.00 Build 0)  -->
<svg version="1.1" id="Layer_1" xmlns="http://www.w3.org/2000/svg" xmlns:xlink="http://www.w3.org/1999/xlink" x="0px" y="0px"
	 viewBox="0 0 503.607 503.607" style="enable-background:new 0 0 503.607 503.607;" xml:space="preserve">
<g>
	<g>
		<g>
			<path d="M269.936,262.893l-17.685-52.115l-17.685,52.115c-1.158,3.408-4.348,5.699-7.949,5.699h-51.989l41.455,33.859
				c2.703,2.199,3.76,5.842,2.661,9.149l-18.281,55.019l47.339-29.604c2.719-1.704,6.178-1.704,8.897,0l47.339,29.604
				l-18.281-55.019c-1.091-3.282-0.059-6.908,2.61-9.115l40.876-33.893h-51.359C274.293,268.593,271.095,266.301,269.936,262.893z"
				/>
			<path d="M386.098,58.754h-41.967v-8.511c0-9.191-7.529-16.669-16.787-16.669h-25.18v-8.511C302.164,11.239,290.866,0,276.975,0
				h-50.352c-13.883,0-25.18,11.239-25.18,25.063v8.511h-25.18c-9.258,0-16.787,7.479-16.787,16.669v8.511h-41.967
				c-23.141,0-41.967,18.826-41.967,41.967v360.918c0,23.141,18.826,41.967,41.967,41.967h268.59
				c23.141,0,41.967-18.826,41.967-41.967V100.721C428.066,77.581,409.239,58.754,386.098,58.754z M176.262,67.148V50.361h33.574
				c4.633,0,8.393-3.76,8.393-8.393V25.063c0-4.642,3.685-8.276,8.393-8.276h50.352c4.709,0,8.402,3.634,8.402,8.276v16.904
				c0,4.633,3.76,8.393,8.393,8.393l33.574-0.117l-0.126,58.872H176.262V67.148z M357.88,266.66l-54.381,45.09l23.821,71.705
				c1.116,3.357,0.008,7.05-2.778,9.241c-1.511,1.192-3.349,1.796-5.187,1.796c-1.536,0-3.08-0.42-4.449-1.276l-62.649-39.181
				l-62.657,39.181c-2.996,1.872-6.857,1.662-9.636-0.52c-2.787-2.191-3.895-5.884-2.778-9.241l23.804-71.663l-55.22-45.098
				c-2.745-2.241-3.785-5.976-2.594-9.317c1.192-3.341,4.356-5.573,7.907-5.573h69.523l23.703-69.842
				c1.15-3.408,4.348-5.699,7.949-5.699c3.592,0,6.79,2.291,7.94,5.699l23.703,69.842h68.625c3.534,0,6.698,2.216,7.898,5.548
				C361.615,260.675,360.607,264.402,357.88,266.66z"/>
		</g>
	</g>
</g>
<g>
</g>
<g>
</g>
<g>
</g>
<g>
</g>
<g>
</g>
<g>
</g>
<g>
</g>
<g>
</g>
<g>
</g>
<g>
</g>
<g>
</g>
<g>
</g>
<g>
</g>
<g>
</g>
<g>
</g>
</svg>
