<?xml version="1.0" encoding="iso-8859-1"?>
<!-- Generator: Adobe Illustrator 16.0.0, SVG Export Plug-In . SVG Version: 6.00 Build 0)  -->
<!DOCTYPE svg PUBLIC "-//W3C//DTD SVG 1.1//EN" "http://www.w3.org/Graphics/SVG/1.1/DTD/svg11.dtd">
<svg version="1.1" id="Capa_1" xmlns="http://www.w3.org/2000/svg" xmlns:xlink="http://www.w3.org/1999/xlink" x="0px" y="0px"
	 width="583.007px" height="583.007px" viewBox="0 0 583.007 583.007" style="enable-background:new 0 0 583.007 583.007;"
	 xml:space="preserve">
<g>
	<g id="Layer_1_159_">
		<g>
			<circle cx="211.815" cy="242.582" r="15.3"/>
			<circle cx="171.016" cy="299.957" r="16.575"/>
			<circle cx="292.141" cy="325.457" r="21.675"/>
			<circle cx="411.99" cy="299.957" r="16.575"/>
			<circle cx="371.19" cy="242.582" r="15.3"/>
			<path d="M426.016,217.082c-10.2-25.5-28.05-48.45-49.725-63.75c-12.75,34.425-47.176,58.65-85.426,58.65
				c-39.524,0-72.675-24.225-85.425-58.65c-21.675,16.575-39.525,38.25-49.725,65.025c-44.625,10.2-76.5,49.725-76.5,96.9
				c0,54.825,44.625,98.175,98.175,98.175c16.575,0,33.15-5.1,47.175-12.75c20.4,10.2,42.075,16.575,66.3,16.575h1.275
				c24.225,0,45.9-6.375,66.3-16.575c14.025,7.65,29.325,11.475,47.175,11.475c54.825,0,98.176-44.625,98.176-98.175
				C503.791,266.807,470.641,227.282,426.016,217.082z M171.016,317.807c-8.925,0-16.575-7.65-16.575-16.575
				s7.65-16.575,16.575-16.575s16.575,7.65,16.575,16.575S181.216,317.807,171.016,317.807z M211.815,257.882
				c-8.925,0-15.3-7.65-15.3-15.3c0-8.925,7.65-15.3,15.3-15.3c7.65,0,15.3,7.65,15.3,15.3
				C228.391,251.507,220.741,257.882,211.815,257.882z M292.141,347.132c-11.475,0-21.675-10.2-21.675-21.675
				c0-11.476,10.2-21.676,21.675-21.676s21.675,10.2,21.675,21.676C313.815,338.207,303.615,347.132,292.141,347.132z
				 M371.19,257.882c-8.925,0-15.3-7.65-15.3-15.3c0-8.925,7.65-15.3,15.3-15.3c8.925,0,15.3,7.65,15.3,15.3
				C386.49,251.507,380.115,257.882,371.19,257.882z M411.99,317.807c-8.925,0-16.574-7.65-16.574-16.575
				s7.649-16.575,16.574-16.575c8.926,0,16.575,7.65,16.575,16.575S420.916,317.807,411.99,317.807z"/>
			<path d="M358.44,432.557c-20.399,7.65-43.35,12.75-66.3,12.75s-45.9-5.1-66.3-14.025c-14.025,6.375-30.6,8.926-47.175,8.926
				c-12.75,0-25.5-2.551-38.25-5.101l29.325,89.25c11.475,35.7,44.625,58.65,81.6,58.65h80.325c36.975,0,70.125-24.226,81.6-58.65
				l29.325-89.25c-11.476,3.825-24.226,5.101-38.25,5.101C389.041,441.481,372.466,437.656,358.44,432.557z"/>
			<path d="M289.591,106.157c-11.476,0-21.675-10.2-21.675-21.675c1.274-8.925-1.275-15.3-2.55-21.675
				c-21.675,10.2-36.975,31.875-36.975,57.375c0,34.425,28.05,62.475,62.475,62.475c34.426,0,62.476-28.05,62.476-62.475
				c0-29.325-19.125-53.55-45.9-59.925c1.275,7.65,2.55,15.3,2.55,24.225C311.266,95.957,302.341,106.157,289.591,106.157z"/>
			<path d="M229.666,14.356c0,0,53.55,14.025,53.55,68.85c0,3.825,3.825,7.65,7.649,7.65c3.825,0,7.65-3.825,7.65-7.65
				c0-66.3-63.75-82.875-63.75-82.875c-3.825-1.275-7.65,1.275-8.925,5.1C223.291,10.532,225.841,14.356,229.666,14.356z"/>
		</g>
	</g>
</g>
<g>
</g>
<g>
</g>
<g>
</g>
<g>
</g>
<g>
</g>
<g>
</g>
<g>
</g>
<g>
</g>
<g>
</g>
<g>
</g>
<g>
</g>
<g>
</g>
<g>
</g>
<g>
</g>
<g>
</g>
</svg>
