<?xml version="1.0" encoding="iso-8859-1"?>
<!-- Generator: Adobe Illustrator 16.0.0, SVG Export Plug-In . SVG Version: 6.00 Build 0)  -->
<!DOCTYPE svg PUBLIC "-//W3C//DTD SVG 1.1//EN" "http://www.w3.org/Graphics/SVG/1.1/DTD/svg11.dtd">
<svg version="1.1" id="Capa_1" xmlns="http://www.w3.org/2000/svg" xmlns:xlink="http://www.w3.org/1999/xlink" x="0px" y="0px"
	 width="91.564px" height="91.564px" viewBox="0 0 91.564 91.564" style="enable-background:new 0 0 91.564 91.564;"
	 xml:space="preserve">
<g>
	<g>
		<path d="M46.303,39.644l38.185-18.302C76.374,8.52,62.077,0,45.782,0C32.269,0,20.128,5.857,11.747,15.169L46.303,39.644z"/>
		<path d="M5.601,23.827C2.032,30.345,0,37.826,0,45.782c0,10.825,3.766,20.767,10.047,28.603l27.562-27.886L5.601,23.827z"/>
		<path d="M48.909,50.172L17.6,81.848c7.771,6.082,17.55,9.717,28.182,9.717c25.284,0,45.782-20.498,45.782-45.782
			c0-5.207-0.883-10.204-2.482-14.867L48.909,50.172z"/>
	</g>
</g>
<g>
</g>
<g>
</g>
<g>
</g>
<g>
</g>
<g>
</g>
<g>
</g>
<g>
</g>
<g>
</g>
<g>
</g>
<g>
</g>
<g>
</g>
<g>
</g>
<g>
</g>
<g>
</g>
<g>
</g>
</svg>
