<?xml version="1.0" encoding="iso-8859-1"?>
<!-- Generator: Adobe Illustrator 16.0.0, SVG Export Plug-In . SVG Version: 6.00 Build 0)  -->
<!DOCTYPE svg PUBLIC "-//W3C//DTD SVG 1.1//EN" "http://www.w3.org/Graphics/SVG/1.1/DTD/svg11.dtd">
<svg version="1.1" id="Capa_1" xmlns="http://www.w3.org/2000/svg" xmlns:xlink="http://www.w3.org/1999/xlink" x="0px" y="0px"
	 width="93.498px" height="93.498px" viewBox="0 0 93.498 93.498" style="enable-background:new 0 0 93.498 93.498;"
	 xml:space="preserve">
<g>
	<path d="M54.999,4.212v26.069c0,1.389-4.301,4.778-7.178,6.89v7.688c1.48,0.512,2.551,1.903,2.551,3.557v40.803
		c0,2.086-1.69,3.778-3.776,3.778H43.95c-2.086,0-3.777-1.692-3.777-3.778V48.416c0-1.654,1.07-3.045,2.551-3.557v-7.606
		c-3.055-2.104-7.746-5.565-7.746-6.972V4.212c0-2.087,1.014-3.779,3.27-3.779h1.348v27.196c0,0.647,0.824,1.17,1.84,1.17
		s1.838-0.523,1.838-1.17V0.433h3.406v27.196c0,0.647,0.822,1.17,1.84,1.17c1.017,0,1.838-0.523,1.838-1.17V0.433h0.56
		C53.171,0.433,54.999,2.125,54.999,4.212z M18.574,0.599c0,0-10.055,6.573-10.055,23.973v3.442c0,17.171,3.773,24.735,6.305,29.113
		v33.579c0,1.542,1.25,2.792,2.793,2.792h1.955c1.541,0,2.793-1.25,2.793-2.792V55.489c0.047-0.245,0.074-0.498,0.074-0.757V4.465
		C22.438,2.33,21.604-0.626,18.574,0.599z M84.979,17.667C84.979,7.91,80.054,0,73.979,0c-6.076,0-11,7.91-11,17.667
		c0,8.345,3.607,15.321,8.451,17.171v10.954c-1.48,0.513-2.553,1.901-2.553,3.558v40.303c0,2.087,1.692,3.779,3.779,3.779h2.645
		c2.086,0,3.777-1.692,3.777-3.779V49.348c0-1.654-1.068-3.045-2.55-3.557V34.837C81.372,32.987,84.979,26.012,84.979,17.667z"/>
</g>
<g>
</g>
<g>
</g>
<g>
</g>
<g>
</g>
<g>
</g>
<g>
</g>
<g>
</g>
<g>
</g>
<g>
</g>
<g>
</g>
<g>
</g>
<g>
</g>
<g>
</g>
<g>
</g>
<g>
</g>
</svg>
