<?xml version="1.0" encoding="iso-8859-1"?>
<!-- Generator: Adobe Illustrator 19.0.0, SVG Export Plug-In . SVG Version: 6.00 Build 0)  -->
<svg version="1.1" id="Layer_1" xmlns="http://www.w3.org/2000/svg" xmlns:xlink="http://www.w3.org/1999/xlink" x="0px" y="0px"
	 viewBox="0 0 300.439 300.439" style="enable-background:new 0 0 300.439 300.439;" xml:space="preserve">
<g>
	<path style="fill:#324D5B;" d="M46.944,0v300.439H28.166V0H46.944z"/>
	<path style="fill:#C8C8C8;" d="M159.608,46.953h112.664V215.95H159.608V46.953z"/>
	<path style="fill:#2B424D;" d="M187.775,75.11v28.166h28.166V75.11H187.775z M272.272,103.276V75.11h-28.166v28.166H272.272z
		 M272.272,159.608v-28.166h-28.166v28.166H272.272z M187.775,131.442v28.166h28.166v-28.166H187.775z M272.272,215.94v-28.166
		h-28.166v28.166H272.272z M187.775,215.94h28.166v-28.166h-28.166V215.94z M244.107,46.944H215.94V75.11h28.166V46.944z
		 M215.94,103.276v28.166h28.166v-28.166H215.94z M215.94,187.774h28.166v-28.166H215.94V187.774z"/>
	<path style="fill:#969696;" d="M159.608,187.774h28.166l-28.166,28.176V187.774z"/>
	<path style="fill:#EBEBEB;" d="M46.944,18.777h140.831v168.997H46.944V18.777z"/>
	<path style="fill:#324D5B;" d="M46.944,46.944V75.11H75.11V46.944H46.944z M131.443,75.11V46.944h-28.166V75.11H131.443z
		 M187.775,75.11V46.944h-28.166V75.11H187.775z M187.775,131.442v-28.166h-28.166v28.166H187.775z M103.276,131.442h28.166v-28.166
		h-28.166V131.442z M46.944,103.276v28.166H75.11v-28.166H46.944z M187.775,187.774v-28.166h-28.166v28.166H187.775z
		 M103.276,187.774h28.166v-28.166h-28.166V187.774z M46.944,187.774H75.11v-28.166H46.944V187.774z M103.276,18.777H75.11v28.166
		h28.166V18.777z M159.608,18.777h-28.166v28.166h28.166V18.777z M131.443,75.11v28.166h28.166V75.11H131.443z M103.276,75.11H75.11
		v28.166h28.166V75.11z M131.443,159.608h28.166v-28.166h-28.166V159.608z M75.11,131.442v28.166h28.166v-28.166H75.11z"/>
</g>
<g>
</g>
<g>
</g>
<g>
</g>
<g>
</g>
<g>
</g>
<g>
</g>
<g>
</g>
<g>
</g>
<g>
</g>
<g>
</g>
<g>
</g>
<g>
</g>
<g>
</g>
<g>
</g>
<g>
</g>
</svg>
