<?xml version="1.0" encoding="iso-8859-1"?>
<!-- Generator: Adobe Illustrator 16.0.0, SVG Export Plug-In . SVG Version: 6.00 Build 0)  -->
<!DOCTYPE svg PUBLIC "-//W3C//DTD SVG 1.1//EN" "http://www.w3.org/Graphics/SVG/1.1/DTD/svg11.dtd">
<svg version="1.1" id="Capa_1" xmlns="http://www.w3.org/2000/svg" xmlns:xlink="http://www.w3.org/1999/xlink" x="0px" y="0px"
	 width="533.333px" height="533.333px" viewBox="0 0 533.333 533.333" style="enable-background:new 0 0 533.333 533.333;"
	 xml:space="preserve">
<g>
	<path d="M266.667,0C119.391,0,0,119.391,0,266.667c0,147.275,119.391,266.666,266.667,266.666
		c147.275,0,266.667-119.391,266.667-266.666C533.333,119.391,413.942,0,266.667,0z M366.667,133.333
		c18.41,0,33.333,22.386,33.333,50s-14.923,50-33.333,50s-33.333-22.386-33.333-50S348.256,133.333,366.667,133.333z
		 M166.667,133.333c18.409,0,33.333,22.386,33.333,50s-14.924,50-33.333,50s-33.333-22.386-33.333-50
		S148.257,133.333,166.667,133.333z M266.667,466.667c-86.911,0-159.074-72.85-166.667-165.784
		c48.838,28.187,106.276,44.305,166.667,44.305s117.828-16.045,166.667-44.229C425.743,393.895,353.579,466.667,266.667,466.667z"/>
</g>
<g>
</g>
<g>
</g>
<g>
</g>
<g>
</g>
<g>
</g>
<g>
</g>
<g>
</g>
<g>
</g>
<g>
</g>
<g>
</g>
<g>
</g>
<g>
</g>
<g>
</g>
<g>
</g>
<g>
</g>
</svg>
