<?xml version="1.0" encoding="iso-8859-1"?>
<!-- Generator: Adobe Illustrator 18.0.0, SVG Export Plug-In . SVG Version: 6.00 Build 0)  -->
<!DOCTYPE svg PUBLIC "-//W3C//DTD SVG 1.1//EN" "http://www.w3.org/Graphics/SVG/1.1/DTD/svg11.dtd">
<svg version="1.1" id="Capa_1" xmlns="http://www.w3.org/2000/svg" xmlns:xlink="http://www.w3.org/1999/xlink" x="0px" y="0px"
	 viewBox="0 0 53.347 53.347" style="enable-background:new 0 0 53.347 53.347;" xml:space="preserve" fill="#E91E63">
<g>
	<path d="M14.37,29.331c2.249-8.5,9.9-14.345,18.977-14.345c0.474,0,0.942,0.025,1.408,0.057c-1.128-4.335-3.859-8.075-7.77-10.522
		c-2.854-1.786-6.125-2.73-9.459-2.73c-4.771,0-9.287,1.918-12.515,5.289c-1.5-0.529-3.373,0.245-4.342,1.792
		C0.138,9.719-0.089,10.7,0.031,11.632c0.105,0.822,0.482,1.546,1.054,2.048c-2.388,7.491,0.71,15.859,7.561,20.146
		c0.875,0.548,1.793,1.013,2.742,1.4c-0.019-0.197-0.041-0.393-0.041-0.594C11.347,32.346,12.561,30.301,14.37,29.331z
		 M12.472,9.121c-0.193,0.284-0.508,0.437-0.827,0.437c-0.194,0-0.39-0.056-0.563-0.174c-0.456-0.311-0.574-0.933-0.263-1.39
		c2.189-3.211,6.689-3.969,10.032-1.691c0.456,0.311,0.574,0.933,0.263,1.39c-0.312,0.456-0.933,0.573-1.39,0.263
		C17.293,6.297,14.041,6.82,12.472,9.121z"/>
	<path d="M50.617,30.809c-1.657-8.056-8.798-13.823-17.271-13.823s-15.613,5.767-17.271,13.823
		c-1.554,0.349-2.729,1.931-2.729,3.824c0,1.963,1.266,3.592,2.904,3.857c1.949,7.617,9.015,13.066,17.096,13.066
		s15.146-5.45,17.096-13.066c1.639-0.265,2.904-1.894,2.904-3.857C53.347,32.74,52.171,31.158,50.617,30.809z M43.347,31.057
		c-0.553,0-1-0.448-1-1c0-2.481-2.019-4.5-4.5-4.5c-0.553,0-1-0.448-1-1s0.447-1,1-1c3.584,0,6.5,2.916,6.5,6.5
		C44.347,30.609,43.9,31.057,43.347,31.057z"/>
</g>
<g>
</g>
<g>
</g>
<g>
</g>
<g>
</g>
<g>
</g>
<g>
</g>
<g>
</g>
<g>
</g>
<g>
</g>
<g>
</g>
<g>
</g>
<g>
</g>
<g>
</g>
<g>
</g>
<g>
</g>
</svg>
