<?xml version="1.0" encoding="iso-8859-1"?>
<!-- Generator: Adobe Illustrator 18.0.0, SVG Export Plug-In . SVG Version: 6.00 Build 0)  -->
<!DOCTYPE svg PUBLIC "-//W3C//DTD SVG 1.1//EN" "http://www.w3.org/Graphics/SVG/1.1/DTD/svg11.dtd">
<svg version="1.1" id="Capa_1" xmlns="http://www.w3.org/2000/svg" xmlns:xlink="http://www.w3.org/1999/xlink" x="0px" y="0px"
	 viewBox="0 0 60 60" style="enable-background:new 0 0 60 60;" xml:space="preserve">
<g>
	<rect x="33" y="39" width="7" height="4"/>
	<rect x="20" y="39" width="7" height="4"/>
	<rect x="46" y="39" width="7" height="4"/>
	<rect x="7" y="39" width="7" height="4"/>
	<path d="M55.783,8H4.217C1.892,8,0,9.892,0,12.217v35.566C0,50.108,1.892,52,4.217,52h51.566C58.108,52,60,50.108,60,47.783V12.217
		C60,9.892,58.108,8,55.783,8z M6,16h9c0.553,0,1,0.448,1,1s-0.447,1-1,1H6c-0.553,0-1-0.448-1-1S5.447,16,6,16z M14,22
		c0,0.552-0.447,1-1,1h-2c-0.553,0-1-0.448-1-1s0.447-1,1-1h2C13.553,21,14,21.448,14,22z M6,21h1c0.553,0,1,0.448,1,1s-0.447,1-1,1
		H6c-0.553,0-1-0.448-1-1S5.447,21,6,21z M16,45H5v-8h11V45z M16,22c0-0.552,0.447-1,1-1h1c0.553,0,1,0.448,1,1s-0.447,1-1,1h-1
		C16.447,23,16,22.552,16,22z M29,45H18v-8h11V45z M21,22c0-0.552,0.447-1,1-1h2c0.553,0,1,0.448,1,1s-0.447,1-1,1h-2
		C21.447,23,21,22.552,21,22z M28.71,22.71C28.52,22.89,28.26,23,28,23s-0.521-0.11-0.71-0.29C27.109,22.52,27,22.27,27,22
		s0.109-0.52,0.3-0.71c0.36-0.37,1.04-0.37,1.41,0.01C28.89,21.48,29,21.74,29,22C29,22.26,28.89,22.52,28.71,22.71z M28,18h-9
		c-0.553,0-1-0.448-1-1s0.447-1,1-1h9c0.553,0,1,0.448,1,1S28.553,18,28,18z M42,45H31v-8h11V45z M55,45H44v-8h11V45z M48,28
		c-1.276,0-2.469-0.349-3.5-0.947C43.469,27.651,42.276,28,41,28c-3.859,0-7-3.14-7-7s3.141-7,7-7c1.276,0,2.469,0.349,3.5,0.947
		C45.531,14.349,46.724,14,48,14c3.859,0,7,3.14,7,7S51.859,28,48,28z"/>
	<path d="M48,16c-0.631,0-1.23,0.13-1.787,0.345C47.32,17.583,48,19.212,48,21s-0.68,3.417-1.787,4.655C46.77,25.87,47.369,26,48,26
		c2.757,0,5-2.243,5-5S50.757,16,48,16z"/>
	<path d="M41,21c0-1.788,0.68-3.417,1.787-4.655C42.23,16.13,41.631,16,41,16c-2.757,0-5,2.243-5,5s2.243,5,5,5
		c0.631,0,1.23-0.13,1.787-0.345C41.68,24.417,41,22.788,41,21z"/>
	<path d="M43,21c0,1.394,0.576,2.654,1.5,3.562C45.424,23.654,46,22.394,46,21s-0.576-2.654-1.5-3.562
		C43.576,18.346,43,19.606,43,21z"/>
</g>
<g>
</g>
<g>
</g>
<g>
</g>
<g>
</g>
<g>
</g>
<g>
</g>
<g>
</g>
<g>
</g>
<g>
</g>
<g>
</g>
<g>
</g>
<g>
</g>
<g>
</g>
<g>
</g>
<g>
</g>
</svg>
