<?xml version="1.0" encoding="iso-8859-1"?>
<!-- Generator: Adobe Illustrator 16.0.0, SVG Export Plug-In . SVG Version: 6.00 Build 0)  -->
<!DOCTYPE svg PUBLIC "-//W3C//DTD SVG 1.1//EN" "http://www.w3.org/Graphics/SVG/1.1/DTD/svg11.dtd">
<svg version="1.1" id="Capa_1" xmlns="http://www.w3.org/2000/svg" xmlns:xlink="http://www.w3.org/1999/xlink" x="0px" y="0px"
	 width="25.271px" height="25.271px" viewBox="0 0 25.271 25.271" style="enable-background:new 0 0 25.271 25.271;"
	 xml:space="preserve">
<g>
	<path d="M21.052,21.069c2.211-2.176,3.585-5.201,3.585-8.549c0-2.742-0.929-5.26-2.476-7.279c1.826-2.028,1.682-5.239,1.682-5.239
		s-3.421-0.158-5.434,1.854c-0.031,0.03-0.059,0.063-0.088,0.098c-1.691-0.912-3.627-1.432-5.687-1.432
		c-2.058,0-3.993,0.52-5.686,1.432c-0.03-0.033-0.056-0.066-0.087-0.098C4.85-0.156,1.428,0.003,1.428,0.003
		S1.284,3.214,3.109,5.242c-1.546,2.021-2.475,4.537-2.475,7.279c0,3.348,1.374,6.373,3.585,8.549
		c-0.682,0.389-1.148,1.109-1.148,1.951c0,1.242,1.007,2.25,2.25,2.25c1.122,0,2.045-0.824,2.215-1.896
		c1.549,0.729,3.272,1.146,5.098,1.146s3.549-0.42,5.1-1.146c0.17,1.072,1.092,1.896,2.215,1.896c1.242,0,2.25-1.008,2.25-2.25
		C22.198,22.179,21.733,21.455,21.052,21.069z M8.97,5.021h7.333v1H8.97V5.021z M6.887,10.896c0-0.656,0.532-1.188,1.188-1.188
		c0.656,0,1.188,0.531,1.188,1.188c0,0.654-0.532,1.188-1.188,1.188C7.419,12.084,6.887,11.55,6.887,10.896z M12.637,21.521
		c-2.416,0-4.375-1.959-4.375-4.375s1.959-4.375,4.375-4.375s4.375,1.959,4.375,4.375S15.053,21.521,12.637,21.521z M17.198,12.083
		c-0.655,0-1.188-0.533-1.188-1.188c0-0.655,0.532-1.188,1.188-1.188c0.655,0,1.188,0.53,1.188,1.188
		C18.387,11.55,17.854,12.083,17.198,12.083z M12.989,15.019v1.574l0.236,0.01c0.791,0.043,1.324,0.18,1.601,0.412
		c0.277,0.231,0.416,0.656,0.416,1.275c0,0.663-0.149,1.131-0.453,1.397c-0.301,0.268-0.826,0.401-1.579,0.401l-0.219,0.004v0.705
		h-0.717v-0.705l-0.201-0.004c-0.749,0-1.276-0.129-1.581-0.387c-0.305-0.256-0.457-0.701-0.457-1.338l0.005-0.215h1.062v0.109
		c0,0.387,0.063,0.639,0.186,0.75c0.123,0.112,0.399,0.17,0.829,0.17l0.157,0.004v-1.707c-0.837,0-1.408-0.121-1.714-0.361
		c-0.306-0.243-0.46-0.695-0.46-1.359c0-0.645,0.154-1.084,0.462-1.322c0.308-0.235,0.879-0.354,1.712-0.354v-0.61h0.717v0.61
		c0.796,0,1.339,0.113,1.632,0.341c0.293,0.227,0.438,0.649,0.438,1.268v0.146h-1.026l-0.004-0.115c0-0.467-0.291-0.699-0.875-0.699
		H12.989z M12.272,15.015l-0.153,0.004c-0.631,0-0.944,0.25-0.944,0.748c0,0.521,0.313,0.783,0.94,0.783
		c0.006,0,0.058,0.002,0.157,0.008V15.015z M12.989,19.187h0.152c0.683,0,1.024-0.295,1.024-0.879c0-0.322-0.075-0.533-0.229-0.635
		c-0.15-0.103-0.468-0.152-0.95-0.152L12.989,19.187L12.989,19.187z"/>
</g>
<g>
</g>
<g>
</g>
<g>
</g>
<g>
</g>
<g>
</g>
<g>
</g>
<g>
</g>
<g>
</g>
<g>
</g>
<g>
</g>
<g>
</g>
<g>
</g>
<g>
</g>
<g>
</g>
<g>
</g>
</svg>
