<?xml version="1.0" encoding="iso-8859-1"?>
<!-- Generator: Adobe Illustrator 19.1.0, SVG Export Plug-In . SVG Version: 6.00 Build 0)  -->
<svg version="1.1" id="Capa_1" xmlns="http://www.w3.org/2000/svg" xmlns:xlink="http://www.w3.org/1999/xlink" x="0px" y="0px"
	 viewBox="0 0 489.612 489.612" style="enable-background:new 0 0 489.612 489.612;" xml:space="preserve">
<g>
	<g>
		<path d="M436.788,256.913h-14.3l0,0c-9.5-29.1-28.1-54.9-52.8-74.9c0-0.9-0.2-1.9-0.4-2.9c-5.2-18.2,1.2-34.9,8.7-46.8
			c5.2-8.3-1.6-19.1-11.3-17.9c-21.9,2.7-37.1,10.8-47.5,19.9c-5.2,4.6-9.3,10.3-12.1,16.6c-5.1,30.5-19.5,58.5-41.8,80.8
			c-28.3,28.3-66,43.9-106.1,43.9l0,0c-21.8,0-43.2-4.7-62.8-13.7c-13.4,7.2-26.2,10.2-36.7,11.1c-1.9,9.3-2.9,19-2.9,28.8
			c0,11.6,1.4,23,4,33.9l0,0c0,0,0,0.2,0.1,0.5c2.8,11.3,6.9,22.3,12.2,32.6c7,15.2,17.3,32.9,31.3,47.4
			c20.3,20.9,23.8,46.9,24.3,58v4.8c0,0.2,0,0.4,0,0.6c0,0.1,0,0.1,0,0.1l0,0c0.4,5.5,5,9.9,10.6,9.9h64.5c5.9,0,10.6-4.7,10.6-10.6
			v-16c9.4,1.3,18.9,1.9,28.7,1.9c7.6,0,15.1-0.4,22.5-1.2v15.2c0,5.9,4.7,10.6,10.6,10.6h64.6c5.9,0,10.6-4.7,10.6-10.6v-16
			c0.1-5.3,1.9-26.4,21.9-44.5c0.7-0.6,1.4-1.2,2.2-1.9c0.2-0.2,0.4-0.4,0.6-0.5l0,0c22.2-19.8,38.7-44.4,47.1-72h13.6
			c10.8,0,19.6-8.8,19.6-19.6v-48.3C456.388,265.712,447.588,256.913,436.788,256.913z M355.988,260.413c-8.8,0-16-7.2-16-16
			c0-8.8,7.2-16,16-16s16,7.2,16,16C371.988,253.212,364.888,260.413,355.988,260.413z"/>
		<path d="M95.288,234.213c48.2,28.3,111.2,21.8,152.6-19.5c49.1-49.1,49.1-128.7,0-177.8c-49.1-49.2-128.7-49.2-177.8-0.1
			c-47.3,47.3-49.1,122.8-5.3,172.2l1.3,1.1c-4.8,10.3-12.9,22.9-25.9,29.3c-4.3,2.1-3.3,8.5,1.4,9.2c14.2,2.2,34.5-0.3,53.5-14.6
			L95.288,234.213z M118.288,171.913c1-3.8,2.1-7.7,3.3-11.5c1.4-4.4,2.6-5,6.6-2.8c6.9,3.6,14.3,5.6,22,6.6c5,0.6,9.8,0.1,14.4-1.9
			c8.6-3.7,9.9-13.7,2.7-19.7c-2.5-2-5.3-3.5-8.2-4.8c-7.5-3.3-15.4-5.8-22.5-10.1c-11.5-6.9-18.8-16.4-18-30.4
			c1-15.9,9.9-25.8,24.5-31c6-2.2,6-2.1,6.1-8.4c0-2.1,0-4.2,0-6.4c0.1-4.7,0.9-5.5,5.6-5.7c1.5,0,2.9,0,4.4,0c10,0,10,0,10.1,10
			c0,7.1,0,7.1,7.1,8.2c5.4,0.8,10.6,2.4,15.6,4.6c2.8,1.2,3.8,3.1,3,6.1c-1.3,4.3-2.4,8.7-3.8,13c-1.3,4.1-2.6,4.6-6.5,2.8
			c-7.8-3.8-16-5.4-24.7-4.9c-2.3,0.1-4.5,0.4-6.6,1.3c-7.5,3.3-8.7,11.5-2.3,16.6c3.2,2.6,6.9,4.4,10.7,6
			c6.6,2.7,13.3,5.4,19.6,8.8c20,11.1,25.4,36.2,11.3,53.3c-5.1,6.2-11.7,10.4-19.5,12.5c-3.4,0.9-4.9,2.7-4.7,6.2
			c0.1,3.4,0,6.9,0,10.3c0,3.1-1.6,4.7-4.6,4.8c-3.7,0.1-7.4,0.1-11.1,0c-3.3-0.1-4.8-1.9-4.8-5.1c0-2.5,0-5-0.1-7.6
			c-0.1-5.5-0.2-5.8-5.6-6.6c-6.8-1.1-13.5-2.6-19.8-5.7C117.388,178.312,116.888,177.113,118.288,171.913z"/>
	</g>
</g>
<g>
</g>
<g>
</g>
<g>
</g>
<g>
</g>
<g>
</g>
<g>
</g>
<g>
</g>
<g>
</g>
<g>
</g>
<g>
</g>
<g>
</g>
<g>
</g>
<g>
</g>
<g>
</g>
<g>
</g>
</svg>
