<?xml version="1.0" encoding="iso-8859-1"?>
<!-- Generator: Adobe Illustrator 16.0.0, SVG Export Plug-In . SVG Version: 6.00 Build 0)  -->
<!DOCTYPE svg PUBLIC "-//W3C//DTD SVG 1.1//EN" "http://www.w3.org/Graphics/SVG/1.1/DTD/svg11.dtd">
<svg version="1.1" id="Capa_1" xmlns="http://www.w3.org/2000/svg" xmlns:xlink="http://www.w3.org/1999/xlink" x="0px" y="0px"
	 width="318.52px" height="318.52px" viewBox="0 0 318.52 318.52" style="enable-background:new 0 0 318.52 318.52;"
	 xml:space="preserve">
<g>
	<g>
		<path d="M43.702,225.701c18.706,52.455,115.597,45.951,115.597,45.951s96.89,6.504,115.599-45.951
			c-26.61-14.333-68.947-23.736-115.599-23.736C112.648,201.965,70.312,211.368,43.702,225.701z"/>
		<path d="M274.814,94.148c-21.116-2.146-55.432-3.578-82.627-27.558c-27.195-23.975-32.889-19.682-32.889-19.682
			s-5.753-4.292-32.949,19.682C99.154,90.57,64.767,92.002,43.653,94.148c-21.114,2.149-19.672,10.737-24.99,34.714
			s-23.294,30.424-17.541,36.151c3.993,3.972,22.414,19.123,33.337,28.039c28.019-16.938,73.094-28.205,124.84-28.205
			c51.742,0,96.812,11.263,124.836,28.2c10.895-8.917,29.277-24.062,33.265-28.034c5.753-5.727-12.257-12.174-17.575-36.151
			C294.507,104.886,295.926,96.298,274.814,94.148z M185.574,151.761l-26.275-18.994l-26.274,19.136l10.038-31.242l-26.279-19.444
			h32.478l10.038-30.888l10.037,30.888h32.478l-26.274,19.465L185.574,151.761z"/>
		<path d="M275.953,199.785c-26.537-14.66-69.365-24.332-116.654-24.332c-47.287,0-90.115,9.672-116.653,24.332v15.26
			c28.213-14.391,69.669-23.685,116.653-23.685c46.983,0,88.439,9.294,116.654,23.685V199.785z"/>
	</g>
</g>
<g>
</g>
<g>
</g>
<g>
</g>
<g>
</g>
<g>
</g>
<g>
</g>
<g>
</g>
<g>
</g>
<g>
</g>
<g>
</g>
<g>
</g>
<g>
</g>
<g>
</g>
<g>
</g>
<g>
</g>
</svg>
