<?xml version="1.0" encoding="iso-8859-1"?>
<!-- Generator: Adobe Illustrator 19.0.0, SVG Export Plug-In . SVG Version: 6.00 Build 0)  -->
<svg version="1.1" id="Layer_1" xmlns="http://www.w3.org/2000/svg" xmlns:xlink="http://www.w3.org/1999/xlink" x="0px" y="0px"
	 viewBox="0 0 490.124 490.124" style="enable-background:new 0 0 490.124 490.124;" xml:space="preserve">
<g>
	<g>
		<g>
			<path d="M400.6,126.021c12.2,16,21.7,33.4,29.1,52.7c15.3-5.6,30.3-11,46.1-16.8c-18.2-48.4-47.9-87-90-117.2
				c-9.4,13.4-18.6,26.5-28.1,40.1C374,96.721,388.4,110.221,400.6,126.021z"/>
			<path d="M328.2,67.421c6.8-14.5,13.5-29,20.7-44.4c-78.9-33.2-155.8-31.6-229.3,12.1C48.5,77.421,9.9,141.721,0,224.521
				c16.9,1.5,32.9,2.9,48.8,4.3C57.5,103.721,195.7,7.821,328.2,67.421z"/>
			<path d="M48,263.121c-15.2,1.3-31,2.7-46.7,4c3.7,100,90.9,212.4,222.3,223c1.4-16.2,2.8-32,4.1-47.4
				C125,425.721,65.4,366.121,48,263.121z"/>
			<path d="M402.3,246.321c0-86.7-70.5-157.2-157.2-157.2s-157.2,70.5-157.2,157.2s70.5,157.2,157.2,157.2
				S402.3,333.021,402.3,246.321z M254.7,279.221l-28.8,28.7l-28.7-28.8l-27.6-27.8l28.8-28.7l27.6,27.8l66-65.7l28.7,28.8
				L254.7,279.221z"/>
			<path d="M486.6,203.421c-15.7,2.7-31.6,5.5-48,8.3c8.5,57.3-3.3,108.8-38.3,154.1c-34.8,45-81.3,69.7-138.3,76
				c1.4,16.2,2.8,31.9,4.1,47.7C385.3,485.321,513.1,365.621,486.6,203.421z"/>
		</g>
	</g>
</g>
<g>
</g>
<g>
</g>
<g>
</g>
<g>
</g>
<g>
</g>
<g>
</g>
<g>
</g>
<g>
</g>
<g>
</g>
<g>
</g>
<g>
</g>
<g>
</g>
<g>
</g>
<g>
</g>
<g>
</g>
</svg>
