<?xml version='1.0' encoding='iso-8859-1'?>
<!DOCTYPE svg PUBLIC '-//W3C//DTD SVG 1.1//EN' 'http://www.w3.org/Graphics/SVG/1.1/DTD/svg11.dtd'>
<svg version="1.1" xmlns="http://www.w3.org/2000/svg" viewBox="0 0 299.989 299.989" xmlns:xlink="http://www.w3.org/1999/xlink" enable-background="new 0 0 299.989 299.989" fill="#E91E63">
  <g>
    <path d="m290.33,74.864l-74.486-32.663c-3.878-1.701-8.4,0.065-10.1,3.942l-12.691,28.941c-0.155,0.354-0.196,0.746-0.117,1.124l2.181,10.426c0.113,0.54 0.461,1.002 0.949,1.26l5.886,3.11c0.569,0.3 0.941,0.874 0.984,1.516l.646,9.704c-0.055,0.056-0.106,0.108-0.162,0.165-23.29,24.33-34.134,54.455-42.791,83.734-0.07,0.241-0.118,0.505-0.179,0.757h-101.664c-6.903,0-12.5,5.597-12.5,12.5 0,30.735 14.743,58.121 37.594,75.61h-2.528c-6.903,0-12.5,5.597-12.5,12.5 0,6.903 5.597,12.5 12.5,12.5h122.951c6.903,0 12.5-5.597 12.5-12.5 0-6.903-5.597-12.5-12.5-12.5h-2.529c22.851-17.489 37.594-44.876 37.594-75.61 0-6.903-5.597-12.5-12.5-12.5h-32.999c1.939-23.595 4.383-41.729 16.209-67.132l50.801,22.277c3.878,1.7 8.4-0.065 10.1-3.942l23.293-53.117c1.701-3.88-0.064-8.402-3.942-10.102z"/>
    <path d="m105.184,150.192c2.657,8.886 12.015,13.934 20.9,11.277 8.885-2.658 13.934-12.015 11.277-20.9-7.929-26.518-21.101-61.113-40.902-80.662l.595-8.94c0.043-0.642 0.415-1.216 0.984-1.516l5.886-3.11c0.488-0.258 0.836-0.72 0.949-1.26l2.181-10.426c0.079-0.378 0.038-0.771-0.117-1.124l-12.691-28.941c-1.7-3.878-6.222-5.643-10.1-3.942l-74.487,32.662c-3.878,1.7-5.643,6.222-3.942,10.1l23.293,53.118c1.7,3.878 6.222,5.643 10.1,3.942l50.852-22.299c14.683,31.33 13.262,65.468 15.222,72.021z"/>
  </g>
</svg>
