<?xml version="1.0" encoding="iso-8859-1"?>
<!-- Generator: Adobe Illustrator 19.0.0, SVG Export Plug-In . SVG Version: 6.00 Build 0)  -->
<svg version="1.1" id="Layer_1" xmlns="http://www.w3.org/2000/svg" xmlns:xlink="http://www.w3.org/1999/xlink" x="0px" y="0px"
	 viewBox="0 0 512 512" style="enable-background:new 0 0 512 512;" xml:space="preserve">
<g>
	<g>
		<path d="M335.367,257.951c-7.187,0-13.033,5.847-13.033,13.034v43.562c0,7.187,5.847,13.033,13.033,13.033H512v-69.628H335.367z
			 M357.347,312.858c-11.097,0-20.094-8.996-20.094-20.094c0-11.097,8.996-20.094,20.094-20.094s20.094,8.996,20.094,20.094
			C377.44,303.862,368.444,312.858,357.347,312.858z"/>
	</g>
</g>
<g>
	<g>
		<path d="M335.367,227.534H512V152.95c0-23.959-19.492-43.45-43.45-43.45h-6.084H133.703H43.45C19.492,109.5,0,128.991,0,152.95
			v310.047c0,23.959,19.492,43.451,43.45,43.451h425.099c23.959,0,43.45-19.492,43.45-43.451v-105H335.367
			c-23.959,0-43.45-19.491-43.45-43.45v-43.562C291.917,247.026,311.41,227.534,335.367,227.534z"/>
	</g>
</g>
<g>
	<g>
		<polygon points="425.425,5.552 219.067,79.082 451.626,79.082 		"/>
	</g>
</g>
<g>
</g>
<g>
</g>
<g>
</g>
<g>
</g>
<g>
</g>
<g>
</g>
<g>
</g>
<g>
</g>
<g>
</g>
<g>
</g>
<g>
</g>
<g>
</g>
<g>
</g>
<g>
</g>
<g>
</g>
</svg>
