<?xml version="1.0" encoding="iso-8859-1"?>
<!-- Generator: Adobe Illustrator 16.0.0, SVG Export Plug-In . SVG Version: 6.00 Build 0)  -->
<!DOCTYPE svg PUBLIC "-//W3C//DTD SVG 1.1//EN" "http://www.w3.org/Graphics/SVG/1.1/DTD/svg11.dtd">
<svg version="1.1" id="Capa_1" xmlns="http://www.w3.org/2000/svg" xmlns:xlink="http://www.w3.org/1999/xlink" x="0px" y="0px"
	 width="164.681px" height="164.681px" viewBox="0 0 164.681 164.681" style="enable-background:new 0 0 164.681 164.681;"
	 xml:space="preserve" fill="#757575">
<g>
	<path d="M140.635,17.105c-6.674-3.666-14.31-5.776-22.463-5.776c-14.413,0-27.292,6.555-35.823,16.831
		C73.8,17.884,60.925,11.329,46.509,11.329c-8.135,0-15.78,2.11-22.46,5.776C9.703,25.048,0,40.317,0,57.866
		c0,5.005,0.816,9.825,2.301,14.34c0.637,2.874,1.727,5.824,3.118,8.787H35.46l7.539-12.623c1.099-1.852,3.081-2.99,5.236-3.036
		c1.961-0.131,4.181,1.029,5.347,2.837l10.878,16.772L77.84,48.799c0.904-2.445,3.23-4.068,5.837-4.074h0.012
		c2.606,0,4.938,1.623,5.846,4.062l11.989,32.206h20.618c3.465,0,6.235,2.792,6.235,6.232c0,3.446-2.771,6.235-6.235,6.235H97.201
		c-2.605,0-4.932-1.625-5.852-4.055l-7.633-20.518l-11.849,32.05c-0.816,2.204-2.804,3.763-5.155,4.031
		c-0.231,0.024-0.462,0.036-0.682,0.036c-2.095,0-4.071-1.059-5.237-2.837L48.591,83.361l-4.226,7.066
		c-1.142,1.894-3.175,3.045-5.358,3.045h-26c22.262,30.287,69.355,59.88,69.355,59.88s72.047-45.266,80.029-81.146
		c1.474-4.515,2.29-9.335,2.29-14.34C164.681,40.317,154.969,25.048,140.635,17.105z"/>
</g>
<g>
</g>
<g>
</g>
<g>
</g>
<g>
</g>
<g>
</g>
<g>
</g>
<g>
</g>
<g>
</g>
<g>
</g>
<g>
</g>
<g>
</g>
<g>
</g>
<g>
</g>
<g>
</g>
<g>
</g>
</svg>
