<?xml version="1.0" encoding="iso-8859-1"?>
<!-- Generator: Adobe Illustrator 18.0.0, SVG Export Plug-In . SVG Version: 6.00 Build 0)  -->
<!DOCTYPE svg PUBLIC "-//W3C//DTD SVG 1.1//EN" "http://www.w3.org/Graphics/SVG/1.1/DTD/svg11.dtd">
<svg version="1.1" id="Capa_1" xmlns="http://www.w3.org/2000/svg" xmlns:xlink="http://www.w3.org/1999/xlink" x="0px" y="0px"
	 viewBox="0 0 477.16 477.16" style="enable-background:new 0 0 477.16 477.16;" xml:space="preserve">
<g>
	<path d="M188.617,112.135V85.216c25.673-3.653,43.213-9.586,45.168-16.372c0,0,0-47.308,0-47.386
		C233.785,9.608,186.898,0,129.057,0C71.217,0,24.344,9.608,24.344,21.459c0,0.078,0,47.386,0,47.386
		c1.953,6.786,19.482,12.719,45.151,16.364v26.927C28.407,116.843,0.333,126.242,0.333,137.1v0.008v311.869
		c0,15.566,57.64,28.183,128.724,28.183c71.104,0,128.741-12.617,128.741-28.183V137.108V137.1
		C257.798,126.242,229.706,116.843,188.617,112.135z M123.364,361.434c-8.639,0-16.41-1.466-22.459-3.529
		c-4.729-1.621-7.397-6.639-6.079-11.47c0.683-2.513,2.357-4.63,4.653-5.879c2.279-1.24,4.98-1.496,7.46-0.705
		c4.359,1.404,9.524,2.536,14.689,2.536c12.532,0,18.877-6.034,18.877-13.813c0-10.16-10.16-14.759-20.785-14.759h-1.194
		c-4.777,0-8.653-3.877-8.653-8.655c0-4.777,3.876-8.655,8.653-8.655h0.713c8.099-0.156,18.412-3.172,18.412-11.904
		c0-6.189-5.07-10.797-15.231-10.797c-4.359,0-8.842,0.978-12.75,2.281c-2.372,0.783-4.963,0.566-7.182-0.604
		c-2.201-1.171-3.831-3.204-4.514-5.607c-1.288-4.583,1.18-9.376,5.66-10.997c6.533-2.366,15.141-4.119,24.184-4.119
		c22.055,0,34.277,11.587,34.277,25.717c0,10.951-6.189,19.529-18.894,23.972v0.318c12.395,2.218,22.384,11.586,22.384,25.081
		C165.585,348.102,149.565,361.434,123.364,361.434z"/>
	<path d="M427.812,218.447v-19.071c18.18-2.591,30.604-6.794,31.984-11.61c0,0,0-33.527,0-33.581
		c0-8.399-33.225-15.208-74.204-15.208c-40.996,0-74.221,6.809-74.221,15.208c0,0.054,0,33.581,0,33.581
		c1.381,4.816,13.807,9.019,32.001,11.601v19.08c-29.115,3.334-49.031,10.004-49.031,17.698v221.037
		c0,11.036,40.857,19.978,91.251,19.978c50.38,0,91.234-8.942,91.234-19.978V236.145
		C476.826,228.452,456.927,221.782,427.812,218.447z M400.388,374.176c0,5.157-4.188,9.337-9.336,9.337
		c-5.151,0-9.337-4.181-9.337-9.337v-56.064h-0.251l-7.569,3.599c-1.983,0.946-4.28,0.93-6.25-0.031
		c-1.969-0.97-3.396-2.777-3.86-4.925c-0.728-3.288,0.93-6.639,3.986-8.066l14.734-6.855c1.241-0.574,2.574-0.869,3.939-0.869h4.608
		c5.148,0,9.336,4.18,9.336,9.337V374.176z"/>
</g>
<g>
</g>
<g>
</g>
<g>
</g>
<g>
</g>
<g>
</g>
<g>
</g>
<g>
</g>
<g>
</g>
<g>
</g>
<g>
</g>
<g>
</g>
<g>
</g>
<g>
</g>
<g>
</g>
<g>
</g>
</svg>
