<?xml version="1.0" encoding="iso-8859-1"?>
<!-- Generator: Adobe Illustrator 19.0.0, SVG Export Plug-In . SVG Version: 6.00 Build 0)  -->
<svg version="1.1" id="Layer_1" xmlns="http://www.w3.org/2000/svg" xmlns:xlink="http://www.w3.org/1999/xlink" x="0px" y="0px"
	 viewBox="0 0 512 512" style="enable-background:new 0 0 512 512;" xml:space="preserve">
<g>
	<g>
		<path d="M319.281,221.84l40.078-26.719C379.164,181.908,391,159.789,391,136V87.246c17.424-6.211,30-22.705,30-42.246V15
			c0-8.291-6.709-15-15-15H106c-8.291,0-15,6.709-15,15v30c0,19.541,12.576,36.035,30,42.246V136
			c0,23.789,11.836,45.908,31.641,59.121l40.078,26.719C204.174,229.486,211,242.26,211,256s-6.826,26.514-18.281,34.16
			l-40.078,26.719C132.836,330.092,121,352.211,121,376v48.754c-17.424,6.211-30,22.705-30,42.246v30c0,8.291,6.709,15,15,15h300
			c8.291,0,15-6.709,15-15v-30c0-19.541-12.576-36.035-30-42.246V376c0-23.789-11.836-45.908-31.641-59.121l-40.078-26.719
			C307.826,282.514,301,269.74,301,256S307.826,229.486,319.281,221.84z M271,256c0,23.789,11.836,45.908,31.641,59.121
			l40.078,26.719C354.174,349.486,361,362.26,361,376v46H151v-46c0-13.74,6.826-26.514,18.281-34.16l40.078-26.719
			C229.164,301.908,241,279.789,241,256s-11.836-45.908-31.641-59.121l-40.078-26.719C157.826,162.514,151,149.74,151,136V90h210v46
			c0,13.74-6.826,26.514-18.281,34.16l-40.078,26.719C282.836,210.092,271,232.211,271,256z"/>
	</g>
</g>
<g>
	<g>
		<path d="M264.994,333.988c-5.332-3.984-12.656-3.984-17.988,0L181,383.5v8.5h150v-8.5L264.994,333.988z"/>
	</g>
</g>
<g>
</g>
<g>
</g>
<g>
</g>
<g>
</g>
<g>
</g>
<g>
</g>
<g>
</g>
<g>
</g>
<g>
</g>
<g>
</g>
<g>
</g>
<g>
</g>
<g>
</g>
<g>
</g>
<g>
</g>
</svg>
