<?xml version="1.0" encoding="iso-8859-1"?>
<!-- Generator: Adobe Illustrator 18.0.0, SVG Export Plug-In . SVG Version: 6.00 Build 0)  -->
<!DOCTYPE svg PUBLIC "-//W3C//DTD SVG 1.1//EN" "http://www.w3.org/Graphics/SVG/1.1/DTD/svg11.dtd">
<svg version="1.1" id="Capa_1" xmlns="http://www.w3.org/2000/svg" xmlns:xlink="http://www.w3.org/1999/xlink" x="0px" y="0px"
	 viewBox="0 0 210.365 210.365" style="enable-background:new 0 0 210.365 210.365;" xml:space="preserve">
<g>
	<circle cx="48.489" cy="43.269" r="43.269"/>
	<circle cx="161.876" cy="43.269" r="43.269"/>
	<path d="M84.112,154.856H63.996v-51.935c0-1.381-1.119-2.5-2.5-2.5H35.482c-1.381,0-2.5,1.119-2.5,2.5v51.935H12.866
		c-0.934,0-1.79,0.521-2.22,1.35c-0.43,0.829-0.361,1.828,0.177,2.591l35.621,50.509c0.469,0.664,1.23,1.06,2.043,1.06
		s1.574-0.395,2.043-1.059l35.625-50.509c0.538-0.764,0.606-1.763,0.177-2.592C85.902,155.377,85.046,154.856,84.112,154.856z"/>
	<path d="M197.499,154.856h-20.117l0.001-51.935c0-0.663-0.264-1.299-0.732-1.768c-0.469-0.469-1.104-0.732-1.768-0.732h-26.014
		c-1.381,0-2.5,1.119-2.5,2.5l-0.001,51.935h-20.115c-0.934,0-1.79,0.521-2.22,1.35c-0.43,0.829-0.361,1.828,0.177,2.591
		l35.621,50.509c0.469,0.664,1.23,1.06,2.043,1.06s1.574-0.395,2.043-1.059l35.625-50.509c0.538-0.764,0.607-1.763,0.177-2.592
		C199.289,155.377,198.433,154.856,197.499,154.856z"/>
</g>
<g>
</g>
<g>
</g>
<g>
</g>
<g>
</g>
<g>
</g>
<g>
</g>
<g>
</g>
<g>
</g>
<g>
</g>
<g>
</g>
<g>
</g>
<g>
</g>
<g>
</g>
<g>
</g>
<g>
</g>
</svg>
