<?xml version="1.0" encoding="iso-8859-1"?>
<!-- Generator: Adobe Illustrator 18.0.0, SVG Export Plug-In . SVG Version: 6.00 Build 0)  -->
<!DOCTYPE svg PUBLIC "-//W3C//DTD SVG 1.1//EN" "http://www.w3.org/Graphics/SVG/1.1/DTD/svg11.dtd">
<svg version="1.1" id="Capa_1" xmlns="http://www.w3.org/2000/svg" xmlns:xlink="http://www.w3.org/1999/xlink" x="0px" y="0px"
	 viewBox="0 0 53.042 53.042" style="enable-background:new 0 0 53.042 53.042;" xml:space="preserve">
<g>
	<path d="M14.379,44.042v-8c0-0.552-0.448-1-1-1H2.645c-1.257,3.375-1.223,7.04-0.369,10h11.103
		C13.931,45.042,14.379,44.594,14.379,44.042z"/>
	<path d="M24.215,48.341l1.016-1.177c2.611-3.028,3.175-9.332-0.192-13.536l-0.659-0.819v-5.765
		c-0.346-0.556-0.53-1.025-0.631-1.372c0.981-0.494,1.662-1.5,1.662-2.671c0-1.654-1.346-3-3-3h-12c-1.654,0-3,1.346-3,3
		c0,1.247,0.765,2.316,1.849,2.769c-0.244,0.773-0.886,2.06-2.585,3.498c-1.317,1.115-2.34,2.4-3.11,3.775h9.815
		c1.654,0,3,1.346,3,3v8c0,1.654-1.346,3-3,3H3.027c1.743,3.748,4.916,5.97,8.689,6h9.605h0.004
		c1.517-0.012,2.938-0.382,4.208-1.061c-0.425-0.637-0.75-1.352-0.945-2.13L24.215,48.341z M12.541,24H10.41c-0.552,0-1-0.448-1-1
		s0.448-1,1-1h12c0.552,0,1,0.448,1,1s-0.448,1-1,1h-4.753H12.541z"/>
	<rect x="40.379" y="21.042" width="11" height="22"/>
	<path d="M46.583,9.267c-0.248-0.209-0.489-0.411-0.737-0.629c-0.338-0.306-0.395-0.683-0.383-0.944
		c0.01-0.224,0.077-0.445,0.181-0.651h-6.987c-0.553,0-1-0.447-1-1s0.447-1,1-1h8.512c0.125-0.333,0.21-0.681,0.21-1.042V3
		c0-1.654-1.346-3-3-3h-11c-1.654,0-3,1.346-3,3v1c0,0.362,0.086,0.71,0.212,1.042h4.067c0.553,0,1,0.447,1,1s-0.447,1-1,1H32.18
		c0.111,0.192,0.19,0.396,0.215,0.599c0.04,0.322-0.041,0.604-0.237,0.836c-0.057,0.064-0.117,0.127-0.184,0.185
		c-0.227,0.195-0.466,0.393-0.711,0.596c-2.062,1.704-4.884,4.037-4.884,8.743v14.104l0.22,0.273
		c4.04,5.043,3.337,12.393,0.146,16.093l-0.339,0.393l0.125,0.503C27.064,51.506,28.969,53,31.16,53h15.437
		c2.637,0,4.781-2.145,4.781-4.78v-3.178h-13v-26h13V18C51.379,13.299,48.607,10.969,46.583,9.267z"/>
</g>
<g>
</g>
<g>
</g>
<g>
</g>
<g>
</g>
<g>
</g>
<g>
</g>
<g>
</g>
<g>
</g>
<g>
</g>
<g>
</g>
<g>
</g>
<g>
</g>
<g>
</g>
<g>
</g>
<g>
</g>
</svg>
