<?xml version="1.0" encoding="iso-8859-1"?>
<!-- Generator: Adobe Illustrator 19.0.0, SVG Export Plug-In . SVG Version: 6.00 Build 0)  -->
<svg version="1.1" id="Layer_1" xmlns="http://www.w3.org/2000/svg" xmlns:xlink="http://www.w3.org/1999/xlink" x="0px" y="0px"
	 viewBox="0 0 512.006 512.006" style="enable-background:new 0 0 512.006 512.006;" xml:space="preserve">
<g>
	<g>
		<path d="M456.254,118.886l-63.145-63.145l-23.083,23.084c-16.676-7.633-35.356-10.689-53.73-8.656
			c-22.839,2.529-44.38,12.886-60.658,29.162l-19.291,19.291l118.486,118.486L178.216,413.725L59.731,295.241L16.72,338.252
			c-22.27,22.27-22.271,58.505-0.002,80.774l76.251,76.25c0.001,0.001,0.001,0.001,0.002,0.002
			c10.787,10.787,25.129,16.727,40.385,16.727c15.256-0.001,29.599-5.941,40.386-16.729l238.92-238.921
			c16.277-16.278,26.635-37.819,29.164-60.656c2.035-18.374-1.022-37.053-8.656-53.731L456.254,118.886z"/>
	</g>
</g>
<g>
	<g>
		
			<rect x="439.227" y="3.982" transform="matrix(0.7071 -0.7071 0.7071 0.7071 101.3233 341.8857)" width="48.255" height="89.306"/>
	</g>
</g>
<g>
	<g>
		<path d="M214.735,140.236L81.345,273.627l96.872,96.871l133.39-133.39L214.735,140.236z M174.005,326.558l-48.722-48.722
			l21.614-21.614l48.722,48.722L174.005,326.558z M210.029,290.534l-48.722-48.722l21.614-21.614l48.722,48.722L210.029,290.534z
			 M197.331,205.789l21.614-21.614l48.722,48.722l-21.614,21.614L197.331,205.789z"/>
	</g>
</g>
<g>
</g>
<g>
</g>
<g>
</g>
<g>
</g>
<g>
</g>
<g>
</g>
<g>
</g>
<g>
</g>
<g>
</g>
<g>
</g>
<g>
</g>
<g>
</g>
<g>
</g>
<g>
</g>
<g>
</g>
</svg>
