<?xml version="1.0" encoding="iso-8859-1"?>
<!-- Generator: Adobe Illustrator 19.0.0, SVG Export Plug-In . SVG Version: 6.00 Build 0)  -->
<svg version="1.1" id="Layer_1" xmlns="http://www.w3.org/2000/svg" xmlns:xlink="http://www.w3.org/1999/xlink" x="0px" y="0px"
	 viewBox="0 0 512.003 512.003" style="enable-background:new 0 0 512.003 512.003;" xml:space="preserve">
<g>
	<g>
		<path d="M508.168,37.749l-33.066-0.85l-0.85-33.066c-38.621-8.822-112.345-3.849-179.891,30.077
			c10.605,41.938,34.448,82.971,67.603,116.125c33.155,33.154,74.188,57,116.126,67.604
			C512.017,150.095,516.99,76.372,508.168,37.749z M416.083,84.335c-7.39,7.391-19.377,7.391-26.769-0.001
			c-7.393-7.393-7.39-19.378,0.001-26.768c7.394-7.394,19.377-7.394,26.768-0.001C423.475,64.957,423.477,76.941,416.083,84.335z"/>
	</g>
</g>
<g>
	<g>
		<path d="M338.369,173.634c-35.52-35.521-60.841-77.565-73.889-122.419c-14.164,9.399-27.739,20.286-40.286,32.833
			c-78.856,78.856-103.503,173.329-92.798,239.847C73.24,309.457-7.718,340.919,0.593,362.403
			c8.4,21.714,64.442,6.301,103.574,45.433c39.132,39.132,23.719,95.174,45.433,103.575c21.484,8.311,52.946-72.646,38.508-130.801
			c66.518,10.705,160.991-13.943,239.847-92.799c12.547-12.547,23.433-26.122,32.833-40.286
			C415.934,234.476,373.889,209.155,338.369,173.634z"/>
	</g>
</g>
<g>
</g>
<g>
</g>
<g>
</g>
<g>
</g>
<g>
</g>
<g>
</g>
<g>
</g>
<g>
</g>
<g>
</g>
<g>
</g>
<g>
</g>
<g>
</g>
<g>
</g>
<g>
</g>
<g>
</g>
</svg>
