<?xml version="1.0" encoding="iso-8859-1"?>
<!-- Generator: Adobe Illustrator 19.0.0, SVG Export Plug-In . SVG Version: 6.00 Build 0)  -->
<svg version="1.1" id="Capa_1" xmlns="http://www.w3.org/2000/svg" xmlns:xlink="http://www.w3.org/1999/xlink" x="0px" y="0px"
	 viewBox="0 0 512 512" style="enable-background:new 0 0 512 512;" xml:space="preserve">
<g>
	<g>
		<path d="M426,0h-84c-6.88,0-12.992,4.416-15.2,10.944l-12.832,38.56C293.744,38.496,270.672,32,246,32
			c-62.496,0-115.264,40.256-135.168,96h270.304c-8.192-22.976-22.208-43.072-39.936-59.04L353.52,32H426c8.832,0,16-7.168,16-16
			C442,7.2,434.832,0,426,0z"/>
	</g>
</g>
<g>
	<g>
		<path d="M406,160h-32H118H86c-8.832,0-16,7.168-16,16v32c0,8.832,7.168,16,16,16h320c8.832,0,16-7.168,16-16v-32
			C422,167.168,414.832,160,406,160z"/>
	</g>
</g>
<g>
	<g>
		<path d="M107.216,256l26.88,241.792C134.992,505.888,141.84,512,150,512h192c8.16,0,15.008-6.112,15.904-14.208L384.784,256
			H107.216z"/>
	</g>
</g>
<g>
</g>
<g>
</g>
<g>
</g>
<g>
</g>
<g>
</g>
<g>
</g>
<g>
</g>
<g>
</g>
<g>
</g>
<g>
</g>
<g>
</g>
<g>
</g>
<g>
</g>
<g>
</g>
<g>
</g>
</svg>
