<?xml version="1.0" encoding="iso-8859-1"?>
<!-- Generator: Adobe Illustrator 18.1.1, SVG Export Plug-In . SVG Version: 6.00 Build 0)  -->
<svg version="1.1" id="Capa_1" xmlns="http://www.w3.org/2000/svg" xmlns:xlink="http://www.w3.org/1999/xlink" x="0px" y="0px"
	 viewBox="0 0 19.807 19.807" style="enable-background:new 0 0 19.807 19.807;" xml:space="preserve">
<g>
	<path d="M13.158,16.549l0.105-1.375l-0.131-0.01l-0.109,1.39l-0.17,0.004c0,0-0.125,0.283-0.326,0.575
		c-0.018-0.092-0.086-0.164-0.178-0.172c-0.109-0.007-0.203,0.083-0.211,0.202c-0.006,0.053,0.008,0.104,0.035,0.145
		c-0.053,0.075-0.084,0.199-0.102,0.307c-0.023,0.016-0.049,0.029-0.078,0.044c-0.029-0.064-0.074-0.132-0.137-0.172
		c0.031-0.036,0.053-0.083,0.059-0.134c0.01-0.118-0.072-0.221-0.182-0.23c-0.107-0.007-0.205,0.082-0.213,0.201
		c-0.008,0.079,0.027,0.148,0.08,0.192c-0.074,0.08-0.111,0.228-0.131,0.354c-0.041,0.015-0.082,0.023-0.127,0.037
		c-0.055-0.075-0.125-0.153-0.209-0.189c0.023-0.034,0.041-0.073,0.045-0.119c0.008-0.12-0.074-0.222-0.18-0.23
		c-0.111-0.01-0.205,0.08-0.215,0.199c-0.006,0.084,0.033,0.16,0.096,0.2c-0.08,0.077-0.129,0.195-0.156,0.292
		c-0.021,0.002-0.041,0.008-0.061,0.009c-0.02-0.062-0.055-0.133-0.117-0.18c0.029-0.035,0.047-0.078,0.053-0.128
		c0.01-0.118-0.07-0.223-0.178-0.23c-0.11-0.011-0.207,0.081-0.214,0.199c-0.005,0.07,0.02,0.133,0.063,0.178
		c-0.062,0.062-0.109,0.162-0.151,0.254c-0.068,0.008-0.13,0.015-0.186,0.021H9.93c-0.027-0.095-0.062-0.185-0.146-0.218
		c0.058-0.032,0.098-0.098,0.104-0.171c0.008-0.104-0.049-0.193-0.133-0.225l0.154-1.976L9.775,15.58l-0.154,1.99
		c-0.07,0.031-0.121,0.101-0.128,0.188c-0.007,0.085,0.032,0.164,0.096,0.204l-0.002,0.011c-0.083,0.03-0.142,0.086-0.174,0.152
		c-0.137-0.035-0.272-0.051-0.614,0.059c-0.096,0.031-0.292,0.374-0.292,0.374l0.845,1.249c0,0,2.175-0.065,3.142-0.595
		c0.969-0.529,1.021-0.98,1.021-0.98l0.164-1.384l-0.297-0.305L13.158,16.549z M7.397,14.973l-0.161-0.041v-0.994H7.129v0.966
		l-0.192-0.046l-0.374,0.173c0,0-0.054,0.187-0.144,0.398v-1.592H6.275v1.789c-0.031-0.02-0.071-0.03-0.11-0.03
		c-0.124,0-0.227,0.095-0.227,0.213c0,0.07,0.038,0.133,0.093,0.172c-0.217,0.179-0.473,0.312-0.473,0.312s0.401,1.063,0.861,1.149
		c0.459,0.085,0.719-0.028,0.719-0.028s0.403-0.229,0.575-0.805c0.171-0.574,0-1.292,0-1.292L7.397,14.973z M17.493,7.742V3.965
		c0,0-0.119-0.392-0.391-0.445V2.96h-0.127v0.562c-0.27,0.061-0.398,0.456-0.398,0.456v1.054H16.44V4.191
		c0,0-0.047-0.363-0.326-0.41V3.074h-0.129v0.707C15.679,3.828,15.648,4.2,15.648,4.2v0.43l-0.451-0.352l0.027-0.451
		c0,0,0.029-0.507-0.252-0.571V2.585h-0.127V3.26c-0.293,0.068-0.25,0.568-0.25,0.568V4.23c0,0-0.4,0.2-0.803,0.652
		c-0.4,0.453-0.324,1.229-0.324,1.229v1.505h-0.553V6.188H12.54c0,0,0.023-0.879-0.252-1.683c-0.277-0.803-1.279-1.354-1.279-1.354
		V2.146L10.781,1.92V1.394c0,0,0.064-0.508-0.453-0.591V0h-0.204v0.794c-0.619,0.041-0.572,0.75-0.572,0.75v0.4L9.324,2.171v0.955
		c0,0-0.701,0.325-1.178,0.951C7.671,4.706,7.595,5.809,7.595,5.809v0.478H7.443v1.08L3.655,8.3v2.403H2.099V10H1.902L1.576,9.546
		V9.381c0,0,0.117-0.062,0.146-0.149c0.029-0.079-0.021-0.208-0.17-0.251V8.668H1.461V8.98C1.311,9.024,1.262,9.153,1.29,9.231
		C1.32,9.319,1.439,9.38,1.439,9.38v0.165L1.108,10H0.919v0.703H0.544v1.757c0,0,1.832,0.101,2.232,0.2
		c0.207,0.052,0.572,0.143,0.879,0.219v0.271l0.075,0.012c0,0,5.594-0.199,10.414,1.556c2.275,0.83,3.715,2.15,4.469,3.013h0.65
		V7.742H17.493z M7.105,12.286H6.679V11.28h0.426C7.105,11.28,7.105,12.286,7.105,12.286z M8.749,8.195H8.321V7.189h0.428V8.195z
		 M11.333,8.195h-0.428V7.189h0.428V8.195z M14.947,11.633h-0.426v-1.005h0.426V11.633z M14.947,9.676h-0.426V8.671h0.426V9.676z
		 M16.829,9.85h-0.428V8.847h0.428V9.85z M18.259,9.85h-0.426V8.847h0.426L18.259,9.85L18.259,9.85z"/>
</g>
<g>
</g>
<g>
</g>
<g>
</g>
<g>
</g>
<g>
</g>
<g>
</g>
<g>
</g>
<g>
</g>
<g>
</g>
<g>
</g>
<g>
</g>
<g>
</g>
<g>
</g>
<g>
</g>
<g>
</g>
</svg>
