<?xml version="1.0" encoding="iso-8859-1"?>
<!-- Generator: Adobe Illustrator 16.0.0, SVG Export Plug-In . SVG Version: 6.00 Build 0)  -->
<!DOCTYPE svg PUBLIC "-//W3C//DTD SVG 1.1//EN" "http://www.w3.org/Graphics/SVG/1.1/DTD/svg11.dtd">
<svg version="1.1" id="Capa_1" xmlns="http://www.w3.org/2000/svg" xmlns:xlink="http://www.w3.org/1999/xlink" x="0px" y="0px"
	 width="30.298px" height="30.298px" viewBox="0 0 30.298 30.298" style="enable-background:new 0 0 30.298 30.298;"
	 xml:space="preserve">
<g>
	<g>
		<path d="M15.97,13.651c2.065,0,3.743-1.676,3.743-3.744c0-2.068-1.678-3.743-3.743-3.743c-2.064,0-3.742,1.675-3.742,3.743
			C12.228,11.975,13.905,13.651,15.97,13.651z"/>
		<polygon points="11.247,17.962 9.123,22.421 8.842,23.005 5.063,23.005 2.438,12.507 0.562,12.977 3.555,24.939 5.065,24.939 
			3.125,29.214 4.299,29.748 6.483,24.939 9.685,24.939 11.782,29.739 12.963,29.223 11.091,24.939 12.45,24.939 12.45,23.005 
			10.086,23.005 10.366,22.421 11.037,21.014 12.372,18.21 18.873,18.21 18.873,17.087 11.663,17.087 		"/>
		<polygon points="12.451,13.152 10.368,10.177 9.284,10.354 4.715,19.273 5.369,22.421 7.521,22.421 8.408,22.421 11.083,16.811 
			11.247,16.463 11.247,16.385 19.738,16.385 19.738,14.42 12.346,14.42 		"/>
		<polygon points="14.435,19.801 12.328,19.801 11.081,22.421 11.247,22.421 14.435,22.421 14.435,30.298 17.803,30.298 
			17.803,19.801 17.535,19.801 		"/>
		<polygon points="20.179,2.618 20.179,1.979 17.571,1.979 17.571,2.618 19.06,2.618 17.451,4.43 17.451,5.07 20.291,5.07 
			20.291,4.43 18.57,4.43 		"/>
		<polygon points="25.485,9.943 25.485,9.435 23.418,9.435 23.418,9.943 24.599,9.943 23.324,11.379 23.324,11.887 25.576,11.887 
			25.576,11.379 24.209,11.379 		"/>
		<polygon points="24.59,6.358 23.469,5.816 25.086,5.143 25.289,4.725 23.59,3.905 23.389,4.321 24.358,4.79 22.739,5.464 
			22.539,5.881 24.389,6.775 		"/>
		<polygon points="29.615,7.188 27.768,7.515 29.149,5.268 29.027,4.581 26.233,5.075 26.354,5.763 27.951,5.48 26.57,7.727 
			26.69,8.413 29.735,7.874 		"/>
		<polygon points="27.151,2.157 26.506,3.205 26.565,3.524 27.983,3.273 27.928,2.953 27.067,3.105 27.711,2.059 27.653,1.738 
			26.352,1.969 26.408,2.288 		"/>
		<polygon points="21.6,7.202 22.08,7.434 21.28,7.766 21.18,7.972 22.094,8.413 22.193,8.208 21.641,7.939 22.438,7.607 
			22.539,7.401 21.699,6.996 		"/>
		<polygon points="24.489,1.212 23.936,0.944 24.734,0.611 24.834,0.406 23.994,0 23.895,0.207 24.375,0.438 23.576,0.771 
			23.476,0.976 24.389,1.418 		"/>
		<polygon points="22.193,3.134 21.641,2.866 22.438,2.533 22.539,2.328 21.699,1.922 21.6,2.128 22.08,2.36 21.28,2.692 
			21.18,2.898 22.094,3.34 		"/>
	</g>
</g>
<g>
</g>
<g>
</g>
<g>
</g>
<g>
</g>
<g>
</g>
<g>
</g>
<g>
</g>
<g>
</g>
<g>
</g>
<g>
</g>
<g>
</g>
<g>
</g>
<g>
</g>
<g>
</g>
<g>
</g>
</svg>
