<?xml version="1.0" encoding="iso-8859-1"?>
<!-- Generator: Adobe Illustrator 19.0.0, SVG Export Plug-In . SVG Version: 6.00 Build 0)  -->
<svg version="1.1" id="Layer_1" xmlns="http://www.w3.org/2000/svg" xmlns:xlink="http://www.w3.org/1999/xlink" x="0px" y="0px"
	 viewBox="0 0 512 512" style="enable-background:new 0 0 512 512;" xml:space="preserve">
<circle style="fill:#E15050;" cx="256" cy="256" r="256"/>
<path style="fill:#D24146;" d="M511.931,261.403l-117.75-117.75l-2.891,5.86l-64.178-64.179l-128,142.222L87.181,365.518
	l145.405,145.405c7.713,0.7,15.519,1.076,23.414,1.076C395.578,512,509.054,400.293,511.931,261.403z"/>
<path style="fill:#E6F3FF;" d="M398.222,319.785H113.778V152.71c0-6.744,5.466-12.212,12.212-12.212h260.022
	c6.744,0,12.21,5.467,12.21,12.212V319.785z"/>
<path style="fill:#CFDBE6;" d="M398.222,152.71c0-6.744-5.466-12.21-12.21-12.21H255.428v179.286h142.795V152.71z"/>
<rect x="132.741" y="159.461" style="fill:#324A5E;" width="246.519" height="158.599"/>
<rect x="255.431" y="159.461" style="fill:#2B3B4E;" width="123.833" height="158.599"/>
<path style="fill:#CFDBE6;" d="M416.611,369.778H95.391c-5.554,0-10.056-4.503-10.056-10.056v-36.776
	c0-5.554,4.503-10.056,10.056-10.056h321.221c5.554,0,10.056,4.503,10.056,10.056v36.776
	C426.667,365.275,422.164,369.778,416.611,369.778z"/>
<path style="fill:#B8C9D9;" d="M416.611,312.889H255.428v56.889h161.183c5.554,0,10.056-4.503,10.056-10.056v-36.776
	C426.667,317.392,422.164,312.889,416.611,312.889z"/>
<rect x="184.889" y="85.333" style="fill:#FFD15D;" width="142.222" height="199.111"/>
<rect x="255.431" y="85.333" style="fill:#F9B54C;" width="71.685" height="199.111"/>
<rect x="211.609" y="112.054" style="fill:#F4E3C3;" width="88.781" height="31.892"/>
<rect x="255.431" y="112.054" style="fill:#FED8B2;" width="44.959" height="31.892"/>
<g>
	<rect x="213.333" y="168.943" style="fill:#A6A8AA;" width="85.333" height="4.81"/>
	<rect x="213.333" y="195.405" style="fill:#A6A8AA;" width="85.333" height="4.81"/>
	<rect x="213.333" y="221.849" style="fill:#A6A8AA;" width="85.333" height="4.81"/>
	<rect x="213.333" y="248.311" style="fill:#A6A8AA;" width="85.333" height="4.81"/>
</g>
<g>
	<rect x="255.431" y="168.943" style="fill:#808183;" width="43.236" height="4.81"/>
	<rect x="255.431" y="195.405" style="fill:#808183;" width="43.236" height="4.81"/>
	<rect x="255.431" y="221.849" style="fill:#808183;" width="43.236" height="4.81"/>
	<rect x="255.431" y="248.311" style="fill:#808183;" width="43.236" height="4.81"/>
</g>
<g>
</g>
<g>
</g>
<g>
</g>
<g>
</g>
<g>
</g>
<g>
</g>
<g>
</g>
<g>
</g>
<g>
</g>
<g>
</g>
<g>
</g>
<g>
</g>
<g>
</g>
<g>
</g>
<g>
</g>
</svg>
